<?xml version="1.0" encoding="UTF-8"?>
<svg version="1.1" xmlns="http://www.w3.org/2000/svg" width="979" height="841">
<path d="M0 0 C12.29385185 9.14745926 17.8101126 20.36688058 22.62890625 34.609375 C22.99452164 35.67163803 23.36013702 36.73390106 23.73683167 37.82835388 C24.93286168 41.30907906 26.11883993 44.79313777 27.3046875 48.27734375 C28.14690677 50.73489051 28.98968962 53.19224419 29.83300781 55.64941406 C36.31345169 74.55381171 42.72485599 93.48191365 49.13452148 112.41040039 C53.92639123 126.55115685 58.80869493 140.65731433 63.75549316 154.74450684 C70.09559607 172.81660167 76.21775799 190.96118674 82.3401947 209.10780334 C88.18254577 226.42317447 94.05483215 243.72491387 100.1171875 260.96484375 C106.42963969 278.91599093 112.53421881 296.93502473 118.6171875 314.96484375 C125.00106727 333.88648065 131.42743101 352.78922264 138.05029297 371.62890625 C144.10808158 388.8731634 149.95913004 406.18605537 155.80521393 423.50286102 C161.47296803 440.2901921 167.17845111 457.06154398 173.0546875 473.77734375 C179.63485137 492.49613951 185.99130999 511.28835045 192.33366013 530.08864594 C199.07258884 550.06356393 205.87526011 570.01299297 212.875 589.8984375 C215.61586591 597.68790409 218.32778162 605.48586074 220.9609375 613.3125 C221.340224 614.43053261 221.340224 614.43053261 221.72717285 615.57115173 C226.59946319 630.1562223 225.76607769 644.52506289 219.4921875 658.52734375 C214.45498757 667.98525048 207.21522216 674.81875414 197.6171875 679.46484375 C196.79863281 679.86574219 195.98007812 680.26664063 195.13671875 680.6796875 C192.32339645 681.87566869 189.57805633 682.70242003 186.6171875 683.46484375 C184.85375 683.95597656 184.85375 683.95597656 183.0546875 684.45703125 C169.63862309 687.2102527 159.72760118 679.66948478 148.83308411 672.74276733 C143.15936747 669.13846699 137.3458467 665.81657873 131.49032593 662.51483154 C128.55249819 660.85531249 125.62459776 659.17844139 122.6953125 657.50390625 C121.51633974 656.83094309 120.33730323 656.15809159 119.15820312 655.48535156 C118.57401611 655.15200806 117.9898291 654.81866455 117.38793945 654.47521973 C116.51141724 653.97508362 116.51141724 653.97508362 115.6171875 653.46484375 C110.9084384 650.77807164 106.19995832 648.0908297 101.4921875 645.40234375 C100.91164612 645.07082306 100.33110474 644.73930237 99.73297119 644.3977356 C90.27341037 638.99455046 80.83418205 633.5566543 71.40136719 628.10693359 C63.52662065 623.55996398 55.63856893 619.03660684 47.7421875 614.52734375 C47.16180725 614.19590363 46.581427 613.8644635 45.98345947 613.52297974 C41.86181772 611.16948099 37.73957199 608.81704122 33.6171875 606.46484375 C29.49277118 604.11148694 25.36853279 601.75781953 21.24487305 599.40313721 C19.5051255 598.40973142 17.76525851 597.41653485 16.02539062 596.42333984 C10.1046617 593.04042477 4.19114918 589.64577533 -1.7109375 586.23046875 C-2.30683685 585.8858107 -2.90273621 585.54115265 -3.51669312 585.18605042 C-6.35780173 583.54246346 -9.19765858 581.896777 -12.03564453 580.24780273 C-13.04481934 579.66329346 -14.05399414 579.07878418 -15.09375 578.4765625 C-15.97337402 577.96569092 -16.85299805 577.45481934 -17.75927734 576.9284668 C-18.62504395 576.44547119 -19.49081055 575.96247559 -20.3828125 575.46484375 C-21.36540039 574.85624512 -22.34798828 574.24764648 -23.36035156 573.62060547 C-26.31602859 572.14082439 -26.31602859 572.14082439 -29.16162109 573.27905273 C-30.10859863 573.83407471 -31.05557617 574.38909668 -32.03125 574.9609375 C-33.64386719 575.88229492 -33.64386719 575.88229492 -35.2890625 576.82226562 C-36.44556226 577.51520833 -37.60180564 578.20857908 -38.7578125 578.90234375 C-39.96749271 579.60438445 -41.17845159 580.30422611 -42.390625 581.00195312 C-45.48347183 582.7894732 -48.55949948 584.60390735 -51.63122559 586.4274292 C-54.2621101 587.98562643 -56.90448774 589.52391114 -59.546875 591.0625 C-62.47386167 592.76759516 -65.39951069 594.47465862 -68.31982422 596.19116211 C-75.77704557 600.56726709 -83.31256452 604.7878025 -90.8828125 608.96484375 C-100.48867406 614.26564348 -109.99956168 619.70263565 -119.45825195 625.26123047 C-127.66035204 630.0708318 -135.94094788 634.72994195 -144.24536133 639.36010742 C-153.36416957 644.44555559 -162.43341331 649.61363859 -171.49072266 654.80761719 C-174.12906164 656.31943932 -176.7684598 657.82939158 -179.40869141 659.33790588 C-180.59181697 660.01396742 -181.7747582 660.69035162 -182.95751953 661.36705017 C-185.96561334 663.08741615 -188.97675441 664.80196955 -191.99462891 666.50512695 C-197.48993456 669.61376303 -202.92623999 672.769675 -208.23828125 676.1875 C-217.78667479 682.24082119 -225.14398217 686.35532258 -236.640625 684.3515625 C-250.73422975 681.0120549 -263.20443437 674.19679884 -271.17578125 661.640625 C-279.92053573 645.12275543 -279.47578758 630.94919872 -274.3828125 613.46484375 C-271.7828454 605.13779428 -268.9108268 596.8995702 -266.0703125 588.65234375 C-265.25777753 586.2774135 -264.4456914 583.90232965 -263.6340332 581.52709961 C-258.54634224 566.66054375 -253.38406506 551.82034656 -248.1812439 536.9937439 C-242.05105137 519.51778581 -236.11936306 501.97590472 -230.19559479 484.42925262 C-224.52754019 467.64112264 -218.82183191 450.8689486 -212.9453125 434.15234375 C-206.61292561 416.13840682 -200.48687287 398.05704246 -194.3828125 379.96484375 C-187.99891318 361.0432132 -181.57256912 342.14046522 -174.94970703 323.30078125 C-169.12956436 306.73301315 -163.49955994 290.10232718 -157.8828125 273.46484375 C-151.98608945 255.9980388 -146.05935432 238.54461527 -139.9453125 221.15234375 C-133.61292561 203.13840682 -127.48687287 185.05704246 -121.3828125 166.96484375 C-115.00220072 148.05295736 -108.58647486 129.15711743 -101.95877075 110.32998657 C-97.88955074 98.76537157 -93.91873708 87.16974581 -90.0078125 75.55078125 C-89.53380849 74.1439055 -89.0597738 72.73704008 -88.58570862 71.33018494 C-86.47662158 65.06894479 -84.37062999 58.80673448 -82.27832603 52.53986359 C-81.62013797 50.57128683 -80.95933212 48.60361042 -80.29748535 46.63626099 C-79.48749381 44.22780701 -78.6817746 41.81790955 -77.88146973 39.40621948 C-72.573896 23.67379312 -67.11259376 8.67458864 -52.3828125 -0.53515625 C-51.47982422 -1.10169922 -51.47982422 -1.10169922 -50.55859375 -1.6796875 C-35.09088367 -10.3377139 -14.86265574 -9.5754487 0 0 Z M-28.3828125 39.46484375 C-28.99201538 41.26272339 -28.99201538 41.26272339 -29.61352539 43.09692383 C-36.84761692 64.43699932 -44.10873412 85.76561359 -51.5703125 107.02734375 C-58.0416867 125.47149637 -64.31746261 143.97997839 -70.56962585 162.4992218 C-76.23783071 179.28775123 -81.94365158 196.06033636 -87.8203125 212.77734375 C-94.15269939 230.79128068 -100.27875213 248.87264504 -106.3828125 266.96484375 C-112.76671182 285.8864743 -119.19305588 304.78922228 -125.81591797 323.62890625 C-131.63606064 340.19667435 -137.26606506 356.82736032 -142.8828125 373.46484375 C-148.77953555 390.9316487 -154.70627068 408.38507223 -160.8203125 425.77734375 C-167.15269939 443.79128068 -173.27875213 461.87264504 -179.3828125 479.96484375 C-185.76341409 498.87669996 -192.18506146 517.77021267 -198.80584717 536.59970093 C-205.55534703 555.80803624 -212.06428343 575.09769318 -218.56943035 594.38982391 C-219.23311581 596.35780652 -219.89725384 598.32563586 -220.56150818 600.29342651 C-221.3746458 602.70305042 -222.18671972 605.11303368 -222.99745178 607.52346802 C-224.55257938 612.13215882 -226.10912414 616.73702189 -227.777771 621.30599976 C-228.00940886 621.94239978 -228.24104671 622.5787998 -228.4797039 623.23448467 C-229.1317822 625.01831059 -229.79030047 626.79977851 -230.44918823 628.58110046 C-231.53681948 631.43534962 -231.53681948 631.43534962 -231.3828125 634.46484375 C-227.83846823 633.12028677 -224.57482057 631.55256031 -221.26953125 629.69921875 C-220.28162598 629.1462915 -219.2937207 628.59336426 -218.27587891 628.02368164 C-217.21804199 627.42676514 -216.16020508 626.82984863 -215.0703125 626.21484375 C-213.96091309 625.59150146 -212.85151367 624.96815918 -211.70849609 624.32592773 C-203.26927205 619.56832863 -194.90035024 614.69570984 -186.54760742 609.78808594 C-177.9269863 604.74097914 -169.19977857 599.8989428 -160.45410156 595.07275391 C-151.99759371 590.39368013 -143.63940316 585.56494672 -135.30737305 580.66845703 C-127.10527296 575.8588557 -118.82467712 571.19974555 -110.52026367 566.56958008 C-101.39682989 561.4815523 -92.32341906 556.31023892 -83.26171875 551.11328125 C-80.07530169 549.28876565 -76.88555305 547.47016527 -73.6953125 545.65234375 C-72.51683335 544.98024627 -71.33836668 544.30812691 -70.15991211 543.63598633 C-67.77659692 542.27677502 -65.39177667 540.92025313 -63.00610352 539.56518555 C-57.11634235 536.21333698 -51.26716323 532.81133166 -45.47265625 529.296875 C-44.38251221 528.64122559 -43.29236816 527.98557617 -42.16918945 527.31005859 C-40.11094335 526.06802175 -38.06077473 524.81246699 -36.02026367 523.54150391 C-35.10092041 522.98897949 -34.18157715 522.43645508 -33.234375 521.8671875 C-32.04062256 521.13230103 -32.04062256 521.13230103 -30.82275391 520.38256836 C-27.56325067 519.1565855 -25.72221038 519.54672285 -22.3828125 520.46484375 C-19.57568359 521.79321289 -19.57568359 521.79321289 -16.65625 523.5 C-15.00665283 524.45434937 -15.00665283 524.45434937 -13.32373047 525.42797852 C-12.13504022 526.12768041 -10.94640233 526.82747128 -9.7578125 527.52734375 C-8.51114233 528.25218971 -7.26389836 528.97604959 -6.01611328 529.69897461 C-3.42389226 531.20179854 -0.83419047 532.70883547 1.75390625 534.21875 C7.7256961 537.6974335 13.73651017 541.1076434 19.7421875 544.52734375 C29.79044647 550.26138747 39.81547792 556.03521955 49.83300781 561.82275391 C57.70775509 566.36972395 65.59588119 570.89294831 73.4921875 575.40234375 C74.07190308 575.73345154 74.65161865 576.06455933 75.24890137 576.40570068 C81.15735388 579.78005439 87.06731839 583.15174837 92.97886658 586.52067566 C95.94209248 588.20960586 98.90477062 589.89949497 101.8671875 591.58984375 C102.74133804 592.08854477 102.74133804 592.08854477 103.63314819 592.59732056 C111.71928429 597.2125361 119.77274845 601.88094079 127.8046875 606.58984375 C137.10284411 612.04046047 146.47346502 617.35056209 155.89526367 622.58447266 C156.86052979 623.12120605 157.8257959 623.65793945 158.8203125 624.2109375 C159.76326172 624.73413574 160.70621094 625.25733398 161.67773438 625.79638672 C165.90754791 628.19726261 170.06079742 630.72458981 174.20996094 633.26196289 C175.0043457 633.65891357 175.79873047 634.05586426 176.6171875 634.46484375 C177.2771875 634.13484375 177.9371875 633.80484375 178.6171875 633.46484375 C170.99680457 610.97556842 163.35750471 588.49479981 155.4921875 566.08984375 C148.81043321 547.05155494 142.34515868 527.94203971 135.89503098 508.82443619 C129.75142881 490.61644438 123.5572021 472.43003811 117.18408203 454.30078125 C111.12629342 437.0565241 105.27524496 419.74363213 99.42916107 402.42682648 C93.76140697 385.6394954 88.05592389 368.86814352 82.1796875 352.15234375 C75.59722698 333.42701464 69.23913251 314.6280712 62.89402008 295.8214035 C56.75079271 277.6144107 50.5568483 259.42903169 44.18408203 241.30078125 C38.12629342 224.0565241 32.27524496 206.74363213 26.42916107 189.42682648 C20.48465519 171.8197838 14.48515832 154.2353456 8.31866455 136.70452881 C4.12573173 124.775111 0.02734089 112.8155399 -4.01953125 100.8359375 C-4.38912995 99.74209653 -4.38912995 99.74209653 -4.7661953 98.62615776 C-7.24219755 91.29691313 -9.71415363 83.96632295 -12.17771244 76.63288593 C-13.10093807 73.88615943 -14.0262913 71.14015234 -14.95199013 68.3942585 C-15.58506891 66.51361084 -16.21510377 64.63193936 -16.84501648 62.75022888 C-19.49134723 54.90227741 -22.34948638 47.17117767 -25.3828125 39.46484375 C-26.3728125 39.46484375 -27.3628125 39.46484375 -28.3828125 39.46484375 Z " fill="#E73D21" transform="translate(511.3828125,31.53515625)"/>
<path d="M0 0 C3.91761989 2.97529706 7.00550847 6.06249243 8.56445312 10.79003906 C8.84679578 16.06868245 6.89186159 20.14503872 4.9140625 24.98046875 C4.51311874 25.99299713 4.11217499 27.00552551 3.69908142 28.04873657 C2.41840983 31.27376628 1.11775433 34.49029674 -0.18359375 37.70703125 C-1.05666916 39.89530291 -1.92842966 42.08409969 -2.79882812 44.2734375 C-4.93270994 49.63248342 -7.08304462 54.98469639 -9.24609375 60.33203125 C-11.91722846 57.66089654 -11.61540991 56.10641881 -11.84375 52.37109375 C-11.96266602 50.58058594 -11.96266602 50.58058594 -12.08398438 48.75390625 C-12.19516602 46.87445313 -12.19516602 46.87445313 -12.30859375 44.95703125 C-12.46305921 42.49069016 -12.62048569 40.02453227 -12.78125 37.55859375 C-12.84707275 36.46111816 -12.91289551 35.36364258 -12.98071289 34.23291016 C-13.20357103 31.79684727 -13.62136836 29.68236801 -14.24609375 27.33203125 C-18.4916485 35.7996611 -22.73485548 44.2684625 -26.97530842 52.73864841 C-28.94574822 56.67437527 -30.91690655 60.60973832 -32.88989258 64.54418945 C-34.80453143 68.36236058 -36.71704095 72.1815921 -38.62825584 76.0014782 C-39.34691326 77.43698749 -40.0662566 78.87215367 -40.78640175 80.30691719 C-45.14582686 88.9937301 -49.40206465 97.72357543 -53.57885742 106.49975586 C-58.58385717 117.00914507 -63.73851632 127.4375177 -68.96231079 137.83963013 C-70.48887499 140.87961787 -72.01267172 143.92098031 -73.53588867 146.96264648 C-77.31465854 154.50704324 -81.09786706 162.0492118 -84.88098145 169.59143066 C-88.0979129 176.00531861 -91.31306546 182.42009268 -94.52603149 188.83596802 C-96.00353375 191.78464697 -97.48349865 194.73208 -98.96362305 197.67944336 C-103.64754387 207.02225356 -108.2567028 216.39406295 -112.74609375 225.83203125 C-117.69302802 236.23188487 -122.79409552 246.54819224 -127.96231079 256.83963013 C-129.48887499 259.87961787 -131.01267172 262.92098031 -132.53588867 265.96264648 C-136.31465854 273.50704324 -140.09786706 281.0492118 -143.88098145 288.59143066 C-147.0979129 295.00531861 -150.31306546 301.42009268 -153.52603149 307.83596802 C-155.00353375 310.78464697 -156.48349865 313.73208 -157.96362305 316.67944336 C-164.18608951 329.09124266 -170.23933012 341.57678445 -176.18681335 354.12266541 C-177.18471698 356.20401628 -178.20733164 358.27081728 -179.24609375 360.33203125 C-178.38516113 360.25984375 -177.52422852 360.18765625 -176.63720703 360.11328125 C-166.11463559 359.31251481 -155.66942139 359.24452784 -145.12109375 359.33203125 C-141.84765854 359.35906847 -138.57428844 359.37883037 -135.30078125 359.39453125 C-134.22520462 359.40697876 -134.22520462 359.40697876 -133.12789917 359.41967773 C-128.92194729 359.43920735 -124.79371773 359.22957529 -120.60351562 358.86157227 C-110.57868622 358.04336122 -100.52478928 357.98162837 -90.47265625 357.796875 C-88.25946552 357.7537248 -86.04627996 357.71030843 -83.83309937 357.66664124 C-79.20534323 357.57612873 -74.57754844 357.48813965 -69.94970703 357.40209961 C-64.08605512 357.2929816 -58.22251969 357.17865913 -52.35900307 357.06252193 C-47.78758028 356.97239339 -43.21611527 356.88457658 -38.64463425 356.79745674 C-36.48658533 356.75616636 -34.32854693 356.71432177 -32.17052078 356.67185783 C-17.52735894 356.38591776 -2.89201454 356.27794234 11.75390625 356.33203125 C11.59692764 355.59087067 11.43994904 354.84971008 11.2782135 354.08609009 C10.84075081 351.78820467 10.54340639 349.59471449 10.36499023 347.26708984 C10.30500351 346.50214203 10.24501678 345.73719421 10.18321228 344.94906616 C10.12275223 344.13442902 10.06229218 343.31979187 10 342.48046875 C9.93482681 341.6257901 9.86965363 340.77111145 9.80250549 339.89053345 C9.66568286 338.08355278 9.530459 336.27645043 9.39672852 334.46923828 C9.19362448 331.73687319 8.9828891 329.00517132 8.77148438 326.2734375 C8.1157327 317.61894032 7.49412535 309.01900421 7.75390625 300.33203125 C11.02059671 298.82288715 14.29289441 297.32631424 17.56640625 295.83203125 C18.95956055 295.18814453 18.95956055 295.18814453 20.38085938 294.53125 C21.71987305 293.92216797 21.71987305 293.92216797 23.0859375 293.30078125 C23.90811768 292.92373047 24.73029785 292.54667969 25.57739258 292.15820312 C27.75390625 291.33203125 27.75390625 291.33203125 30.75390625 291.33203125 C31.45625037 299.91109988 32.14392031 308.49116899 32.81328773 317.07286739 C33.12461064 321.0583848 33.44082603 325.04338329 33.76855469 329.02758789 C34.08510559 332.87817234 34.38837039 336.72960106 34.6827507 340.5819416 C34.79689937 342.04578224 34.91569605 343.50926866 35.03938675 344.97233391 C35.92984971 355.55537609 36.5953549 364.95146485 29.52734375 373.60546875 C23.41522109 379.55603751 15.76940581 380.40171298 7.55363464 380.56617737 C6.32883392 380.59279449 5.1040332 380.61941162 3.84211731 380.64683533 C2.49655315 380.6716283 1.15098729 380.69632917 -0.19458008 380.72094727 C-1.62333921 380.75028774 -3.05209072 380.78000152 -4.48083496 380.81005859 C-8.36580233 380.89059384 -12.25085914 380.9655282 -16.13596177 381.03921247 C-19.41728622 381.10199287 -22.69855162 381.16760375 -25.97982043 381.23321861 C-33.77838409 381.38914986 -41.57702529 381.54063876 -49.37573242 381.68920898 C-56.42074712 381.82347326 -63.46565857 381.96206214 -70.51049805 382.10522461 C-92.7037867 382.55560442 -114.89726667 382.96757272 -137.09266758 383.29955006 C-139.19020601 383.33118827 -141.28772687 383.36381799 -143.38524628 383.39669037 C-150.60762509 383.50776372 -157.8295053 383.59825107 -165.05258751 383.64704704 C-167.11453328 383.6633367 -169.17643976 383.68621217 -171.23822975 383.71634102 C-174.00245108 383.75488388 -176.76557278 383.76785362 -179.5300293 383.77319336 C-180.30882383 383.78926321 -181.08761837 383.80533306 -181.89001274 383.82188988 C-188.28179238 383.78438982 -193.41209304 381.77758785 -198.26953125 377.5859375 C-198.71554688 377.02777344 -199.1615625 376.46960938 -199.62109375 375.89453125 C-200.08257812 375.33894531 -200.5440625 374.78335937 -201.01953125 374.2109375 C-204.75915425 368.48240672 -205.00153772 362.97414221 -204.24609375 356.33203125 C-201.56224941 348.33927053 -197.59631199 340.75192766 -193.80419922 333.23706055 C-193.02493828 331.68051003 -193.02493828 331.68051003 -192.22993469 330.09251404 C-190.52807304 326.69522867 -188.82063527 323.30077791 -187.11328125 319.90625 C-185.91325289 317.51247873 -184.71358675 315.11852952 -183.51443481 312.72431946 C-180.68331353 307.0734055 -177.84846283 301.42437244 -175.01191628 295.77618009 C-169.96176756 285.7201853 -164.91589719 275.6620468 -159.87452805 265.60164768 C-157.83567641 261.5334774 -155.79316257 257.46715931 -153.74972534 253.40129089 C-148.14803749 242.24000677 -142.64191752 231.04269573 -137.28133965 219.76359844 C-132.81796726 210.38980642 -128.18901656 201.10215125 -123.52987671 191.82443237 C-122.00331251 188.78444463 -120.47951578 185.74308219 -118.95629883 182.70141602 C-115.17752896 175.15701926 -111.39432044 167.6148507 -107.61120605 160.07263184 C-104.3942746 153.65874389 -101.17912204 147.24396982 -97.96615601 140.82809448 C-96.48865375 137.87941553 -95.00868885 134.9319825 -93.52856445 131.98461914 C-88.34692032 121.64933274 -83.27370551 111.26950006 -78.30375195 100.83074951 C-71.33553444 86.20086609 -64.14238093 71.68119999 -56.93763447 57.16667175 C-54.48703626 52.22942324 -52.04386425 47.2887799 -49.61694336 42.33984375 C-47.23413272 37.48128748 -44.83367742 32.63183677 -42.42061424 27.78823853 C-41.51380637 25.96060961 -40.6131774 24.12990026 -39.71914101 22.29598999 C-30.3777806 3.15672849 -30.3777806 3.15672849 -20.609375 -2.08203125 C-13.67478135 -3.80135199 -6.23677544 -3.68477547 0 0 Z " fill="#E73D1E" transform="translate(286.24609375,433.66796875)"/>
<path d="M0 0 C7.42525703 4.56889147 11.798729 11.83292698 15.53027344 19.48852539 C15.96229065 20.35007736 16.39430786 21.21162933 16.8394165 22.09928894 C18.25346764 24.92647937 19.6502705 27.76181238 21.046875 30.59765625 C22.04085021 32.59428352 23.03584402 34.590404 24.03179932 36.58604431 C26.64894236 41.83751387 29.25128889 47.09618448 31.85083008 52.35638428 C33.94480973 56.58759896 36.04894769 60.81371729 38.15377426 65.03954411 C54.43983675 97.73869167 54.43983675 97.73869167 62.16894531 113.97827148 C67.12417199 124.38412621 72.23147249 134.70813751 77.40371704 145.00759888 C78.93028124 148.04758662 80.45407797 151.08894906 81.97729492 154.13061523 C85.2117281 160.58823188 88.4493481 167.04424746 91.6875 173.5 C95.44957111 181.00026586 99.2102107 188.50124295 102.96743774 196.00393677 C104.44494 198.95261572 105.9249049 201.90004875 107.4050293 204.84741211 C112.57025618 215.15026281 117.62009293 225.499697 122.57079029 235.90729713 C127.03416794 245.2705277 131.65514166 254.55148836 136.3102169 263.8205986 C137.81494948 266.81693452 139.31692229 269.81464116 140.8183136 272.81265259 C144.00157197 279.16792449 147.18803139 285.52158804 150.375 291.875 C154.08681934 299.27481982 157.79722777 306.67534068 161.50425148 314.07756424 C162.96695057 316.99659599 164.43209546 319.91439059 165.89738464 322.8321228 C168.10133165 327.22564243 170.29110193 331.62591701 172.46746445 336.03316498 C173.27860527 337.67324062 174.09333002 339.31154876 174.91168594 340.94803619 C176.05771473 343.24534367 177.18692215 345.55017188 178.31176758 347.85791016 C178.6466579 348.52216696 178.98154821 349.18642376 179.32658672 349.87080956 C182.41150754 356.29022562 183.00785387 362.4850587 181.6875 369.5 C179.0543114 375.60958929 175.21790935 379.81306043 169.6875 383.5 C165.84403058 384.78115647 162.22448916 384.64978787 158.21899414 384.64599609 C157.32930624 384.64841434 156.43961834 384.6508326 155.5229702 384.65332413 C152.48532886 384.65837826 149.44779566 384.65416336 146.41015625 384.6484375 C144.79893733 384.64720446 144.79893733 384.64720446 143.15516853 384.6459465 C110.73118122 384.60735248 78.31332404 383.92218839 45.89696085 383.2769382 C38.90541106 383.13857964 31.91369361 383.01085036 24.92190593 382.88517535 C18.07906841 382.76173475 11.23638861 382.63125788 4.39378887 382.49527586 C0.34945131 382.41500821 -3.69488972 382.33743801 -7.73941231 382.26704788 C-11.50519419 382.20126564 -15.27070179 382.12668016 -19.0361805 382.04541969 C-21.05801149 382.00394092 -23.08002005 381.97141457 -25.10202026 381.93922424 C-44.36515086 381.49691038 -44.36515086 381.49691038 -51.71875 374.08203125 C-58.79481254 366.08032099 -57.71488681 357.60838905 -57.14678955 347.57263184 C-56.70814655 340.57485733 -56.19268569 333.58333566 -55.65844727 326.59228516 C-55.37307466 322.84975001 -55.09711463 319.10660249 -54.82226562 315.36328125 C-54.64378042 312.97912533 -54.46476334 310.59500916 -54.28515625 308.2109375 C-54.20282242 307.09431732 -54.12048859 305.97769714 -54.03565979 304.82723999 C-53.95565231 303.79160919 -53.87564484 302.75597839 -53.79321289 301.68896484 C-53.72437393 300.78076996 -53.65553497 299.87257507 -53.58460999 298.93685913 C-53.3356903 296.70767889 -52.91732057 294.65656954 -52.3125 292.5 C-43.87028139 294.97444338 -37.51567213 298.39841394 -29.3125 302.5 C-30.6325 320.65 -31.9525 338.8 -33.3125 357.5 C-25.7225 357.5 -18.1325 357.5 -10.3125 357.5 C-6.42400917 357.54135848 -2.53942996 357.58842416 1.34790039 357.66772461 C2.31388153 357.68562546 3.27986267 357.70352631 4.27511597 357.7219696 C7.36184462 357.77981718 10.44849788 357.84086885 13.53515625 357.90234375 C15.73318815 357.94487925 17.93122184 357.98732209 20.1292572 358.02967834 C24.68800997 358.11809368 29.24672445 358.2082407 33.80541992 358.29956055 C39.61122178 358.41563159 45.41711298 358.52629572 51.2230463 358.63556576 C55.74355635 358.72141233 60.26399564 358.81061829 64.78442192 358.90075874 C66.92475617 358.94295331 69.06511294 358.98402242 71.20549202 359.0238781 C81.35862384 359.21430527 91.45163845 359.47748917 101.57572937 360.28953552 C106.85966182 360.64691407 112.13594001 360.62330692 117.4296875 360.59765625 C118.56407257 360.5962413 119.69845764 360.59482635 120.86721802 360.59336853 C124.43234074 360.58784414 127.99739679 360.57530673 131.5625 360.5625 C134.00390533 360.5574752 136.44531167 360.55291403 138.88671875 360.54882812 C144.82033462 360.53789966 150.75391254 360.5212392 156.6875 360.5 C155.95599731 359.04484985 155.95599731 359.04484985 155.2097168 357.56030273 C153.33802139 353.83550791 151.46930138 350.10922613 149.60131836 346.38256836 C148.80423288 344.79331671 148.00642149 343.20442887 147.20776367 341.6159668 C142.56442767 332.37934977 138.00804458 323.10853915 133.57348633 313.76977539 C128.49419633 303.11533742 123.26817045 292.54006328 117.97128296 281.99240112 C116.44471876 278.95241338 114.92092203 275.91105094 113.39770508 272.86938477 C110.1632719 266.41176812 106.9256519 259.95575254 103.6875 253.5 C99.92542889 245.99973414 96.1647893 238.49875705 92.40756226 230.99606323 C90.93006 228.04738428 89.4500951 225.09995125 87.9699707 222.15258789 C82.80725367 211.85474403 77.7599638 201.51032834 72.81173706 191.10775757 C68.31586633 181.67661359 63.65993644 172.32889033 58.97128296 162.99240112 C57.44471876 159.95241338 55.92092203 156.91105094 54.39770508 153.86938477 C51.1632719 147.41176812 47.9256519 140.95575254 44.6875 134.5 C40.92542889 126.99973414 37.1647893 119.49875705 33.40756226 111.99606323 C31.93006 109.04738428 30.4500951 106.09995125 28.9699707 103.15258789 C23.69352285 92.62789213 18.51980811 82.06060394 13.4695816 71.4253006 C9.10717126 62.24011668 4.56754876 53.14696374 0 44.0625 C-0.81725176 42.43304023 -1.63430921 40.80348299 -2.45117188 39.17382812 C-4.4023893 35.28125787 -6.35748506 31.39067329 -8.3125 27.5 C-9.3025 38.72 -10.2925 49.94 -11.3125 61.5 C-13.93047277 60.19101362 -14.04593311 59.13979614 -15.10009766 56.44262695 C-15.44029938 55.58115555 -15.7805011 54.71968414 -16.13101196 53.83210754 C-16.49254364 52.89364487 -16.85407532 51.95518219 -17.2265625 50.98828125 C-17.7883168 49.54680977 -17.7883168 49.54680977 -18.36141968 48.07621765 C-19.15337504 46.03730396 -19.94165098 43.99695794 -20.7265625 41.95532227 C-21.92758469 38.83823382 -23.14658941 35.72860686 -24.3671875 32.61914062 C-25.13392142 30.63844974 -25.89958136 28.65734272 -26.6640625 26.67578125 C-27.02964264 25.74743973 -27.39522278 24.81909821 -27.7718811 23.86262512 C-29.51440069 19.28458917 -30.89515887 15.48275473 -30.3125 10.5 C-27.88786279 5.33846169 -23.88072553 1.37027303 -18.6484375 -0.875 C-12.5070183 -2.51818908 -5.88323529 -2.55892176 0 0 Z " fill="#E73D1E" transform="translate(709.3125,432.5)"/>
</svg>
