<svg xmlns="http://www.w3.org/2000/svg" width="15843" height="5492"><path fill="#018ABE" d="m4618.125-.312 3.001.006C4635.93-.254 4650.433.137 4665 3l3.056.586C4694.03 8.719 4718.615 17.862 4743 28l2.788 1.14c30.94 12.655 59.12 29.451 83.548 52.383a167 167 0 0 0 6.664 5.852c10.273 8.954 18.842 19.767 27 30.625l1.256 1.658c25.663 34.064 42.79 74.301 49.744 116.342l.483 2.59c2.638 14.278 2.726 28.492 2.69 42.959l-.004 3.108c-.036 21.349-.722 42.649-1.62 63.976-.223 5.313-.433 10.626-.645 15.94q-.559 13.956-1.136 27.91c-.576 13.954-1.141 27.907-1.704 41.86q-1.445 35.793-2.912 71.584-1.488 36.357-2.963 72.714l-.095 2.329-.857 21.148-2.156 53.132-.1 2.463q-2.392 58.872-4.795 117.744a1055492 1055492 0 0 0-9.35 229.755l-5.027 123.7-.116 2.856q-3.741 92.04-7.49 184.08l-.121 2.984-7.866 193.136a3911526 3911526 0 0 0-11.957 293.944l-5.422 133.39-.247 6.068-.123 3.035-10.135 249.31c-4.09 100.621-8.182 201.242-15.502 381.18l-.124 3.041-15.62 383.882a20363400 20363400 0 0 0-37.857 931.077l-10.382 255.573-.159 3.908a3082957 3082957 0 0 1-12.375 304.286l-.152 3.742a1709049 1709049 0 0 0-9.022 221.962l-.134 3.304q-2.09 51.443-4.187 102.884a411649 411649 0 0 0-4.728 116.325q-.85 20.94-1.707 41.879-.837 20.43-1.66 40.862-.48 11.869-.969 23.738-.362 8.805-.712 17.609-.141 3.504-.288 7.01c-.507 12.118-.86 24.232-.955 36.362l-.048 3.3c-.025 9.457 1.808 18.142 3.936 27.31 11.357 50.216 4.075 105.856-15.495 152.946-2.854 6.976-5.223 14.087-7.55 21.253-3.886 11.96-8.051 23.57-13.642 34.852l-1.09 2.247c-10.365 21.201-23.837 41.126-39.832 58.491a231 231 0 0 0-5.516 6.262 167 167 0 0 1-21.816 20.805c-1.74 1.391-3.46 2.81-5.148 4.265-17.988 15.402-38.777 26.806-60.118 36.779-5.671 2.688-11 5.562-16.23 9.026-50.08 32.845-116.48 44.298-175.25 36.125l-2.701-.375c-46.832-6.778-88.933-25.51-126.822-53.488-4.821-3.484-9.761-6.428-14.977-9.262-14.386-7.882-27.216-18.066-39.5-28.875l-1.847-1.586c-11.692-10.083-22.827-21.09-32.153-33.414l-1.465-1.92C4132 5342.014 4132 5342.014 4132 5339l-1.672-.676c-3.059-1.74-5.135-3.982-7.578-6.511-3.743-3.868-7.591-7.46-11.662-10.98-3.511-3.082-6.887-6.305-10.275-9.52-5.122-4.84-10.252-9.668-15.438-14.438-7.803-7.18-15.545-14.425-23.291-21.666a4007 4007 0 0 0-21.17-19.67 2838 2838 0 0 1-14.33-13.33q-5.991-5.595-12.021-11.146c-5.572-5.13-11.098-10.309-16.62-15.494a1997 1997 0 0 0-14.08-13.08c-4.78-4.405-9.53-8.842-14.28-13.28q-5.99-5.595-12.02-11.146c-5.572-5.13-11.098-10.309-16.62-15.494a1997 1997 0 0 0-14.08-13.08A2312 2312 0 0 1 3914.5 5138a2635 2635 0 0 0-14-13c-7.841-7.225-15.627-14.51-23.416-21.791a4007 4007 0 0 0-21.17-19.67 2838 2838 0 0 1-14.33-13.33q-5.991-5.595-12.021-11.146c-5.572-5.13-11.098-10.309-16.62-15.494a1997 1997 0 0 0-14.08-13.08c-4.78-4.405-9.53-8.842-14.28-13.28q-5.99-5.595-12.02-11.146c-5.572-5.13-11.098-10.309-16.62-15.494a1997 1997 0 0 0-14.08-13.08c-4.78-4.405-9.53-8.842-14.28-13.28q-5.99-5.595-12.02-11.146c-5.572-5.13-11.098-10.309-16.62-15.494a1997 1997 0 0 0-14.08-13.08A2312 2312 0 0 1 3672.5 4913a2635 2635 0 0 0-14-13c-7.841-7.225-15.627-14.51-23.416-21.791a4007 4007 0 0 0-21.17-19.67 2838 2838 0 0 1-14.33-13.33q-5.991-5.595-12.021-11.146c-5.572-5.13-11.098-10.309-16.62-15.494a1997 1997 0 0 0-14.08-13.08c-4.78-4.405-9.53-8.842-14.28-13.28q-5.99-5.595-12.02-11.146c-5.572-5.13-11.098-10.309-16.62-15.494a1997 1997 0 0 0-14.08-13.08A2312 2312 0 0 1 3487.5 4741a2635 2635 0 0 0-14-13c-7.841-7.225-15.627-14.51-23.416-21.791a4007 4007 0 0 0-21.17-19.67 2838 2838 0 0 1-14.33-13.33q-5.991-5.595-12.021-11.146c-5.572-5.13-11.098-10.309-16.62-15.494a1997 1997 0 0 0-14.08-13.08c-4.78-4.405-9.53-8.842-14.28-13.28q-5.99-5.595-12.02-11.146c-5.572-5.13-11.098-10.309-16.62-15.494a1997 1997 0 0 0-14.08-13.08c-4.78-4.405-9.53-8.842-14.28-13.28q-5.99-5.595-12.02-11.146c-5.572-5.13-11.098-10.309-16.62-15.494a1997 1997 0 0 0-14.08-13.08A2312 2312 0 0 1 3245.5 4516a2635 2635 0 0 0-14-13c-7.841-7.225-15.627-14.51-23.416-21.791a4007 4007 0 0 0-21.17-19.67 2838 2838 0 0 1-14.33-13.33q-5.991-5.595-12.021-11.146c-5.572-5.13-11.098-10.309-16.62-15.494a1997 1997 0 0 0-14.08-13.08c-4.78-4.405-9.53-8.842-14.28-13.28q-5.99-5.595-12.02-11.146c-5.572-5.13-11.098-10.309-16.62-15.494a1997 1997 0 0 0-14.08-13.08c-4.78-4.405-9.53-8.842-14.28-13.28q-5.99-5.595-12.02-11.146c-5.572-5.13-11.098-10.309-16.62-15.494a1997 1997 0 0 0-14.08-13.08A2312 2312 0 0 1 3003.5 4291a2635 2635 0 0 0-14-13c-7.841-7.225-15.627-14.51-23.416-21.791a4007 4007 0 0 0-21.17-19.67 2838 2838 0 0 1-14.33-13.33q-5.991-5.595-12.021-11.146c-5.572-5.13-11.098-10.309-16.62-15.494a1997 1997 0 0 0-14.08-13.08c-4.78-4.405-9.53-8.842-14.28-13.28q-5.99-5.595-12.02-11.146c-5.572-5.13-11.098-10.309-16.62-15.494a1997 1997 0 0 0-14.08-13.08c-4.78-4.405-9.53-8.842-14.28-13.28q-5.99-5.595-12.02-11.146c-5.572-5.13-11.098-10.309-16.62-15.494a1997 1997 0 0 0-14.08-13.08A2312 2312 0 0 1 2761.5 4066a2635 2635 0 0 0-14-13c-7.841-7.225-15.627-14.51-23.416-21.791a4007 4007 0 0 0-21.17-19.67 2838 2838 0 0 1-14.33-13.33q-5.991-5.595-12.021-11.146c-5.572-5.13-11.098-10.309-16.62-15.494a1997 1997 0 0 0-14.08-13.08c-4.78-4.405-9.53-8.842-14.28-13.28q-5.99-5.596-12.02-11.146c-5.572-5.13-11.098-10.309-16.62-15.494a1997 1997 0 0 0-14.08-13.08A2312 2312 0 0 1 2576.5 3894a2635 2635 0 0 0-14-13c-7.841-7.225-15.627-14.51-23.416-21.791a4007 4007 0 0 0-21.17-19.67 2838 2838 0 0 1-14.33-13.33q-5.991-5.595-12.021-11.146c-5.572-5.13-11.098-10.309-16.62-15.494a1997 1997 0 0 0-14.08-13.08c-4.78-4.405-9.53-8.842-14.28-13.28q-5.99-5.596-12.02-11.146c-5.572-5.13-11.098-10.309-16.62-15.494a1997 1997 0 0 0-14.08-13.08c-4.78-4.405-9.53-8.842-14.28-13.28q-5.99-5.596-12.02-11.146c-5.572-5.13-11.098-10.309-16.62-15.494a1997 1997 0 0 0-14.08-13.08A2312 2312 0 0 1 2334.5 3669a2635 2635 0 0 0-14-13c-7.841-7.225-15.627-14.51-23.416-21.791a4007 4007 0 0 0-21.17-19.67 2838 2838 0 0 1-14.33-13.33q-5.991-5.595-12.021-11.146c-5.572-5.13-11.098-10.309-16.62-15.494a1997 1997 0 0 0-14.08-13.08c-4.78-4.405-9.53-8.842-14.28-13.28q-5.99-5.596-12.02-11.146c-5.572-5.13-11.098-10.309-16.62-15.494a1997 1997 0 0 0-14.08-13.08c-4.78-4.405-9.53-8.842-14.28-13.28q-5.99-5.596-12.02-11.146c-5.572-5.13-11.098-10.309-16.62-15.494a1997 1997 0 0 0-14.08-13.08A2312 2312 0 0 1 2092.5 3444a2635 2635 0 0 0-14-13c-7.841-7.225-15.627-14.51-23.416-21.791a4007 4007 0 0 0-21.17-19.67 2838 2838 0 0 1-14.33-13.33q-5.99-5.595-12.022-11.146c-5.571-5.13-11.097-10.309-16.618-15.494a1997 1997 0 0 0-14.08-13.08c-4.782-4.405-9.532-8.842-14.28-13.28q-5.99-5.596-12.022-11.146c-5.571-5.13-11.097-10.309-16.618-15.494a1997 1997 0 0 0-14.08-13.08A2312 2312 0 0 1 1907.5 3272a2635 2635 0 0 0-14-13c-7.841-7.225-15.627-14.51-23.416-21.791a4007 4007 0 0 0-21.17-19.67 2838 2838 0 0 1-14.33-13.33q-5.99-5.595-12.022-11.146c-5.571-5.13-11.097-10.309-16.618-15.494a1997 1997 0 0 0-14.08-13.08c-4.782-4.405-9.532-8.842-14.28-13.28q-5.99-5.596-12.022-11.146c-5.571-5.13-11.097-10.309-16.618-15.494a1997 1997 0 0 0-14.08-13.08c-4.782-4.405-9.532-8.842-14.28-13.28q-5.99-5.596-12.022-11.146c-5.571-5.13-11.097-10.309-16.618-15.494a1997 1997 0 0 0-14.08-13.08A2312 2312 0 0 1 1665.5 3047a2635 2635 0 0 0-14-13c-7.841-7.225-15.627-14.51-23.416-21.791a4007 4007 0 0 0-21.17-19.67 2838 2838 0 0 1-14.33-13.33q-5.99-5.595-12.022-11.146c-5.571-5.13-11.097-10.309-16.618-15.494a1997 1997 0 0 0-14.08-13.08c-4.782-4.405-9.532-8.842-14.28-13.28q-5.99-5.596-12.022-11.146c-5.571-5.13-11.097-10.309-16.618-15.494a1997 1997 0 0 0-14.08-13.08c-4.782-4.405-9.532-8.842-14.28-13.28q-5.99-5.596-12.022-11.146c-5.571-5.13-11.097-10.309-16.618-15.494a1997 1997 0 0 0-14.08-13.08A2312 2312 0 0 1 1423.5 2822a2635 2635 0 0 0-14-13c-7.841-7.225-15.627-14.51-23.416-21.791a4007 4007 0 0 0-21.17-19.67 2838 2838 0 0 1-14.33-13.33q-5.99-5.595-12.022-11.146c-5.571-5.13-11.097-10.309-16.618-15.494a1997 1997 0 0 0-14.08-13.08q-5.242-4.83-10.446-9.698-1.92-1.793-3.845-3.576c-2.947-2.733-5.858-5.48-8.675-8.348-7.694-7.699-16.156-12.704-25.668-17.926-7.448-4.116-14.368-8.922-21.23-13.941l-1.764-1.289c-6.923-5.099-13.436-10.543-19.74-16.398a243 243 0 0 0-6.746-6c-15.603-13.601-27.992-30.439-39.524-47.503-4.803-7.094-9.65-13.367-15.812-19.318-34.556-35.675-56.024-86.198-64.414-134.492l-.496-2.69c-5.11-28.528-4.777-60.842.496-89.31l.602-3.258c4.875-25.441 13.521-48.68 23.92-72.327 1.857-4.291 3.617-8.618 5.373-12.952 9.873-24.283 22.94-45.867 39.105-66.463l2.43-3.117c12.875-15.837 27.939-31.026 44.57-42.883l4.102-3c6.688-4.845 13.439-9.421 20.585-13.562 5.688-3.3 10.793-7.01 15.906-11.137 11.766-9.472 24.26-17.877 37.407-25.301l2.05-1.178c35.38-20.18 78.475-33.192 119.44-32.82 17.984.09 32.927-3.33 49.783-9.383 3.304-1.176 6.624-2.303 9.944-3.433 4.064-1.387 8.127-2.777 12.183-4.187 11.145-3.873 22.357-7.508 33.609-11.055 5.053-1.595 10.1-3.206 15.147-4.819l3.096-.99c14.096-4.515 28.152-9.156 42.213-13.781 17.758-5.84 35.534-11.622 53.348-17.292 19.098-6.078 38.15-12.296 57.187-18.562 20.034-6.594 40.086-13.12 60.184-19.516 17.47-5.564 34.899-11.255 52.316-16.984 18.413-6.056 36.842-12.059 55.313-17.937 19.098-6.08 38.15-12.297 57.187-18.563 20.034-6.594 40.086-13.12 60.184-19.516 17.47-5.564 34.899-11.255 52.316-16.984 18.413-6.056 36.842-12.059 55.313-17.937 19.098-6.08 38.15-12.297 57.187-18.563 20.034-6.594 40.086-13.12 60.184-19.516 17.47-5.564 34.899-11.255 52.316-16.984 18.413-6.056 36.842-12.059 55.313-17.937 19.098-6.08 38.15-12.297 57.187-18.563 20.034-6.594 40.086-13.12 60.184-19.516 17.47-5.564 34.899-11.255 52.316-16.984 18.413-6.056 36.842-12.059 55.313-17.937 19.791-6.3 39.53-12.752 59.259-19.245a6166 6166 0 0 1 57.91-18.767c18.04-5.744 36.034-11.632 54.018-17.551 20.032-6.593 40.082-13.119 60.178-19.514 16.278-5.183 32.518-10.475 48.746-15.812 10.184-3.349 20.37-6.686 30.558-10.022l6.864-2.25c34.329-11.256 68.215-21.862 104.654-22.902l2.221-.066c71.247-1.792 141.195 24.302 193.013 73.375 9.81 9.395 19.613 18.787 27.766 29.691l1.482 1.971c7.476 9.986 14.47 20.115 20.518 31.029l1.402 2.518A778 778 0 0 1 3198 1720l1.4 2.563c9.953 18.94 16.215 39.74 22.773 60.024q1.306 4.031 2.618 8.061a9132 9132 0 0 1 5.85 18.055q2.609 8.077 5.253 16.143c6.065 18.53 11.575 36.941 15.106 56.154l.526 2.628c5.499 28.077 5.073 61.355-.526 89.372l-.52 2.774c-6.901 36.454-20.415 71.566-41.48 102.226l-1.182 1.735c-5.673 8.294-11.787 16.08-18.402 23.645a506 506 0 0 0-3.015 3.485c-10.085 11.692-21.095 22.787-33.401 32.135l-3.594 2.816c-13.078 10.148-27.008 18.513-41.593 26.309l-2.528 1.377c-18.816 9.84-39.464 16.058-59.597 22.56q-2.873.934-5.744 1.869c-17.504 5.699-35.035 11.315-52.575 16.902-18.85 6.004-37.648 12.163-56.44 18.348a6232 6232 0 0 1-58.113 18.835c-17.47 5.564-34.899 11.255-52.316 16.984-18.413 6.056-36.842 12.059-55.312 17.938-19.792 6.299-39.531 12.75-59.26 19.244a6166 6166 0 0 1-57.91 18.767c-18.04 5.744-36.034 11.632-54.018 17.551-20.034 6.594-40.086 13.12-60.184 19.516-17.47 5.564-34.899 11.255-52.316 16.984-18.413 6.056-36.842 12.059-55.312 17.938-19.1 6.078-38.15 12.296-57.188 18.562-20.034 6.594-40.086 13.12-60.184 19.516-17.47 5.564-34.899 11.255-52.316 16.984-18.413 6.056-36.842 12.059-55.312 17.938-19.788 6.298-39.523 12.747-59.248 19.24a6395 6395 0 0 1-59.758 19.361c-18.785 5.982-37.503 12.156-56.182 18.461l2.754 2.57 1.817 1.696 4.038 3.769q5.137 4.793 10.27 9.59a3685 3685 0 0 0 19.207 17.836c4.796 4.422 9.563 8.874 14.328 13.328q6.024 5.627 12.086 11.211c7.841 7.225 15.627 14.51 23.416 21.791a4007 4007 0 0 0 21.17 19.67c4.797 4.422 9.564 8.875 14.33 13.33q5.991 5.595 12.021 11.146c5.572 5.13 11.098 10.309 16.62 15.494 4.67 4.385 9.366 8.742 14.08 13.08 4.78 4.405 9.53 8.842 14.28 13.28q5.99 5.596 12.02 11.146c5.572 5.13 11.098 10.309 16.62 15.494 4.67 4.385 9.366 8.742 14.08 13.08 4.78 4.405 9.53 8.842 14.28 13.28q5.99 5.596 12.02 11.146c5.572 5.13 11.098 10.309 16.62 15.494 4.67 4.385 9.366 8.742 14.08 13.08A2312 2312 0 0 1 2318.5 2795c4.653 4.349 9.316 8.685 14 13 7.841 7.225 15.627 14.51 23.416 21.791a4007 4007 0 0 0 21.17 19.67c4.797 4.422 9.564 8.875 14.33 13.33q5.991 5.595 12.021 11.146c5.572 5.13 11.098 10.309 16.62 15.494 4.67 4.385 9.366 8.742 14.08 13.08 4.78 4.405 9.53 8.842 14.28 13.28q5.99 5.596 12.02 11.146c5.572 5.13 11.098 10.309 16.62 15.494 4.67 4.385 9.366 8.742 14.08 13.08 4.78 4.405 9.53 8.842 14.28 13.28q5.99 5.596 12.02 11.146c5.572 5.13 11.098 10.309 16.62 15.494 4.67 4.385 9.366 8.742 14.08 13.08A2312 2312 0 0 1 2560.5 3020c4.653 4.349 9.316 8.685 14 13 7.841 7.225 15.627 14.51 23.416 21.791a4007 4007 0 0 0 21.17 19.67c4.797 4.422 9.564 8.875 14.33 13.33q5.991 5.595 12.021 11.146c5.572 5.13 11.098 10.309 16.62 15.494 4.67 4.385 9.366 8.742 14.08 13.08 4.78 4.405 9.53 8.842 14.28 13.28q5.99 5.596 12.02 11.146c5.572 5.13 11.098 10.309 16.62 15.494 4.67 4.385 9.366 8.742 14.08 13.08A2312 2312 0 0 1 2745.5 3192c4.653 4.349 9.316 8.685 14 13 7.841 7.225 15.627 14.51 23.416 21.791a4007 4007 0 0 0 21.17 19.67c4.797 4.422 9.564 8.875 14.33 13.33q5.991 5.595 12.021 11.146c5.572 5.13 11.098 10.309 16.62 15.494 4.67 4.385 9.366 8.742 14.08 13.08 4.78 4.405 9.53 8.842 14.28 13.28q5.99 5.596 12.02 11.146c5.572 5.13 11.098 10.309 16.62 15.494 4.67 4.385 9.366 8.742 14.08 13.08 4.78 4.405 9.53 8.842 14.28 13.28q5.99 5.596 12.02 11.146c5.572 5.13 11.098 10.309 16.62 15.494 4.67 4.385 9.366 8.742 14.08 13.08A2312 2312 0 0 1 2987.5 3417c4.653 4.349 9.316 8.685 14 13 7.841 7.225 15.627 14.51 23.416 21.791a4007 4007 0 0 0 21.17 19.67c4.797 4.422 9.564 8.875 14.33 13.33q5.991 5.595 12.021 11.146c5.572 5.13 11.098 10.309 16.62 15.494 4.67 4.385 9.366 8.742 14.08 13.08 4.78 4.405 9.53 8.842 14.28 13.28q5.99 5.596 12.02 11.146c5.572 5.13 11.098 10.309 16.62 15.494 4.67 4.385 9.366 8.742 14.08 13.08 4.78 4.405 9.53 8.842 14.28 13.28q5.99 5.596 12.02 11.146c5.572 5.13 11.098 10.309 16.62 15.494 4.67 4.385 9.366 8.742 14.08 13.08A2312 2312 0 0 1 3229.5 3642c4.653 4.349 9.316 8.685 14 13 7.841 7.225 15.627 14.51 23.416 21.791a4007 4007 0 0 0 21.17 19.67c4.797 4.422 9.564 8.875 14.33 13.33q5.991 5.595 12.021 11.146c5.572 5.13 11.098 10.309 16.62 15.494 4.67 4.385 9.366 8.742 14.08 13.08 4.78 4.405 9.53 8.842 14.28 13.28q5.99 5.596 12.02 11.146c5.572 5.13 11.098 10.309 16.62 15.494 4.67 4.385 9.366 8.742 14.08 13.08A2312 2312 0 0 1 3414.5 3814c4.653 4.349 9.316 8.685 14 13 7.841 7.225 15.627 14.51 23.416 21.791a4007 4007 0 0 0 21.17 19.67c4.797 4.422 9.564 8.875 14.33 13.33q5.991 5.595 12.021 11.146c5.572 5.13 11.098 10.309 16.62 15.494 4.67 4.385 9.366 8.742 14.08 13.08 4.78 4.405 9.53 8.842 14.28 13.28q5.99 5.596 12.02 11.146c5.572 5.13 11.098 10.309 16.62 15.494 4.67 4.385 9.366 8.742 14.08 13.08 4.78 4.405 9.53 8.842 14.28 13.28q5.99 5.596 12.02 11.146c5.572 5.13 11.098 10.309 16.62 15.494 4.67 4.385 9.366 8.742 14.08 13.08A2312 2312 0 0 1 3656.5 4039c4.653 4.349 9.316 8.685 14 13 7.841 7.225 15.627 14.51 23.416 21.791a4007 4007 0 0 0 21.17 19.67c4.797 4.422 9.564 8.875 14.33 13.33q5.991 5.595 12.021 11.146c5.572 5.13 11.098 10.309 16.62 15.494 4.67 4.385 9.366 8.742 14.08 13.08 4.78 4.405 9.53 8.842 14.28 13.28q5.99 5.595 12.02 11.146c5.572 5.13 11.098 10.309 16.62 15.494 4.67 4.385 9.366 8.742 14.08 13.08 4.78 4.405 9.53 8.842 14.28 13.28q5.99 5.595 12.02 11.146c5.572 5.13 11.098 10.309 16.62 15.494 4.67 4.385 9.366 8.742 14.08 13.08A2312 2312 0 0 1 3898.5 4264c4.653 4.349 9.316 8.685 14 13 7.841 7.225 15.627 14.51 23.416 21.791a4007 4007 0 0 0 21.17 19.67c4.797 4.422 9.564 8.875 14.33 13.33q5.991 5.595 12.021 11.146c5.572 5.13 11.098 10.309 16.62 15.494 4.67 4.385 9.366 8.742 14.08 13.08 4.78 4.405 9.53 8.842 14.28 13.28q5.99 5.595 12.02 11.146c5.572 5.13 11.098 10.309 16.62 15.494 4.67 4.385 9.366 8.742 14.08 13.08 4.138 3.812 8.253 7.647 12.363 11.489a2949 2949 0 0 0 15.524 14.41 4130 4130 0 0 1 14.314 13.259L4118 4468c2.927-66.997 5.697-134 8.412-201.006q.673-16.631 1.35-33.262c.03-.761.06-1.522.093-2.306l.474-11.667 3.42-84.273 3.458-85.25.111-2.735 3.534-87.062.117-2.88 5.56-137.04a11820859 11820859 0 0 1 16.477-406.011l.131-3.249 8.45-208.244.137-3.356 8.633-212.778.138-3.388 12.8-315.457.54-13.29 28.664-706.324.487-12.005 13.895-342.424 4.518-111.297c3.622-89.223 7.24-178.445 11.074-273.18l.112-2.753.222-5.503.445-10.983 3.802-93.895 3.111-76.788.102-2.501q1.591-39.297 3.179-78.595a468181 468181 0 0 1 3.564-88.03l.085-2.1q.666-16.425 1.328-32.851.648-16.087 1.302-32.173.35-8.578.694-17.156.312-7.782.63-15.564.115-2.798.226-5.594c.345-8.705.711-17.37 1.725-26.03l-2.355.707c-10.504 3.085-21.114 5.596-31.778 8.063l-6.042 1.407q-6.527 1.52-13.054 3.035c-10.77 2.499-21.536 5.01-32.302 7.519l-11.55 2.69a31142 31142 0 0 0-56.458 13.212l-2.058.483-24.873 5.845-44.212 10.389a116426 116426 0 0 1-90.826 21.295l-23.844 5.583a368088 368088 0 0 0-107.81 25.263l-2.03.475-69.248 16.23-38.372 8.991-2.012.472q-59.873 14.031-119.738 28.091a208480 208480 0 0 1-131.79 30.901l-3.482.816-6.999 1.639q-44.054 10.317-88.104 20.644l-2.018.473-14.15 3.317-2.027.475-6.087 1.426-2.031.477-10.176 2.385a758160 758160 0 0 1-93.387 21.885l-2.011.47q-59.873 14.032-119.738 28.092a208480 208480 0 0 1-131.79 30.901l-3.482.816-6.999 1.639q-44.054 10.317-88.104 20.644l-2.018.473-14.15 3.317-2.027.475-6.087 1.426-2.031.477-10.176 2.385a758160 758160 0 0 1-93.387 21.884l-2.011.472q-59.873 14.031-119.738 28.091-56.091 13.174-112.188 26.313l-3.464.81-55.234 12.934-55.261 12.94a184477 184477 0 0 0-113.41 26.603q-54.28 12.749-108.568 25.463l-3.422.8-17.24 4.038-3.484.816-7 1.639a427183 427183 0 0 0-88.104 20.644l-2.018.473-14.15 3.317-2.027.475-6.087 1.426-2.031.477-10.176 2.385a758160 758160 0 0 1-93.387 21.884l-2.011.472q-59.873 14.031-119.738 28.091a208480 208480 0 0 1-131.79 30.901l-3.482.816-6.999 1.639q-44.053 10.317-88.104 20.644l-2.018.473-14.15 3.317-2.027.475-6.087 1.426-2.031.477-10.176 2.385a758160 758160 0 0 1-93.387 21.884l-2.011.472q-59.873 14.031-119.738 28.091a208480 208480 0 0 1-131.79 30.901l-3.482.816-6.999 1.639q-44.053 10.317-88.104 20.644l-2.018.473-14.15 3.317-2.027.475-6.087 1.426-2.031.477-10.176 2.385a758160 758160 0 0 1-93.387 21.884l-2.011.472q-59.872 14.031-119.739 28.091-56.089 13.174-112.187 26.313l-3.464.81-55.234 12.934-55.26 12.94a128242 128242 0 0 0-95.573 22.417l-3.625.852a73374 73374 0 0 1-39.387 9.242l-3.557.834q-21.99 5.159-43.972 10.356-14.814 3.503-29.633 6.99a8279 8279 0 0 0-17.44 4.122c-31.837 7.564-62.832 14.664-95.73 14.69l-2.318.002c-64.819-.09-129.898-24.056-177.795-68.174a231 231 0 0 0-6.262-5.515 167 167 0 0 1-20.805-21.817c-1.391-1.74-2.81-3.46-4.265-5.148-32.843-38.357-47.681-85.272-58.879-133.466-.813-3.488-1.636-6.973-2.46-10.459-3.97-16.81-7.854-33.638-11.56-50.509l-.852-3.87C-1.996 1313.311-3.668 1276.252 3 1243l.536-2.822C8.824 1212.653 17.826 1186.753 31 1162l1.127-2.154C65.017 1097.256 123.878 1050.952 191 1030c4.533-1.27 9.092-2.411 13.664-3.531q2.056-.51 4.112-1.017c20.364-5.015 40.8-9.732 61.224-14.496q9.17-2.14 18.338-4.285l26.75-6.252a75728 75728 0 0 0 46.373-10.849l3.368-.789 37.34-8.748a980950 980950 0 0 0 108.614-25.447q62.181-14.573 124.355-29.176c42.734-10.036 85.473-20.053 128.214-30.061l3.482-.816 6.999-1.639q44.053-10.317 88.105-20.644l2.017-.473 14.15-3.317 2.027-.475 6.087-1.426 2.031-.477 10.176-2.385a758160 758160 0 0 1 93.386-21.885l2.012-.47q59.872-14.032 119.739-28.092 56.089-13.174 112.187-26.312l3.464-.812 55.234-12.933 55.261-12.94q56.71-13.284 113.41-26.603 54.28-12.749 108.569-25.462l3.421-.802 17.24-4.037 10.484-2.455a427183 427183 0 0 0 88.104-20.644l2.018-.473 14.15-3.317 2.027-.475 6.087-1.426 2.031-.477 10.176-2.385a758160 758160 0 0 1 93.387-21.885l2.011-.47q59.873-14.032 119.738-28.092 65.89-15.472 131.79-30.901l3.482-.816 6.999-1.639q44.054-10.317 88.104-20.644l2.018-.473 14.15-3.317 2.027-.475 6.087-1.426 2.031-.477 10.176-2.385a758160 758160 0 0 1 93.387-21.885l2.011-.47q59.873-14.032 119.738-28.092 65.89-15.472 131.79-30.901l3.482-.816 6.999-1.639a427204 427204 0 0 0 104.272-24.434l2.027-.475 6.087-1.426 2.031-.477 10.176-2.385a758160 758160 0 0 1 93.387-21.885l2.011-.47q59.873-14.033 119.738-28.092 56.091-13.174 112.188-26.312l3.464-.812 55.234-12.933 55.261-12.94q56.71-13.284 113.41-26.603 54.28-12.749 108.568-25.462l3.422-.802 17.24-4.037 10.484-2.455a427183 427183 0 0 0 104.272-24.434l2.027-.475 6.087-1.426 2.031-.477 10.176-2.385a758160 758160 0 0 1 93.387-21.885l2.011-.47q59.873-14.032 119.738-28.092 65.89-15.472 131.79-30.901l3.482-.816 6.999-1.639a427204 427204 0 0 0 104.272-24.434l2.027-.475 6.087-1.426 2.031-.477 10.176-2.385a758160 758160 0 0 1 93.387-21.885l2.011-.47q59.873-14.032 119.738-28.092 51.82-12.171 103.646-24.313 10.563-2.475 21.125-4.954l16.96-3.98 3.319-.777a7486 7486 0 0 1 42.965-9.937q8.063-1.844 16.123-3.7c4.08-.936 8.16-1.867 12.245-2.783 15.872-3.56 31.193-7.359 46.125-13.97 26.003-11.269 55.553-17.24 83.805-18.211 8.385-.29 16.394-1.89 24.57-3.722 16.476-3.61 32.862-4.282 49.68-4.216"/><path d="M8105.027 587.684q7.821.007 15.642-.02c48.547-.168 96.951 1.448 145.331 5.649l3.726.314C8373.36 602.407 8475.94 620.217 8735 689l2.845.903c75.171 23.874 149.588 51.432 220.79 85.495a1532 1532 0 0 0 11.6 5.446c24.562 11.452 48.873 23.353 72.765 36.156l2.746 1.462c12.373 6.595 24.59 13.403 36.672 20.517A638 638 0 0 0 9100.063 849c16.522 9.07 32.454 19.217 48.342 29.347q4.33 2.756 8.665 5.5c11.969 7.603 23.817 15.338 35.458 23.434q4.057 2.818 8.124 5.625c18.359 12.702 36.35 25.777 54.07 39.355 2.89 2.206 5.8 4.381 8.716 6.552 5.974 4.47 11.85 9.057 17.69 13.703 1.923 1.524 3.856 3.035 5.79 4.547 12.657 9.981 25.858 20.864 34.082 34.937l1.068 1.77c14.155 23.704 17.136 50.457 10.932 77.23-3.493 11.866-9.798 21.472-16.984 31.39a350 350 0 0 0-8.512 12.337 2220 2220 0 0 1-11.805 17.597c-12.511 18.486-24.946 37.017-37.199 55.676-12.732 19.39-25.667 38.636-38.67 57.844A2529 2529 0 0 0 9209 1282a2764 2764 0 0 1-12.496 18.617c-12.446 18.39-24.815 36.822-37.004 55.383a4305 4305 0 0 1-33.434 50.104c-9.515 14.058-18.98 28.15-28.308 42.334-12.86 19.488-26.665 33.883-49.758 40.562l-1.912.562c-7.145 1.862-14.305 1.824-21.65 1.813l-2.023-.003c-10.384-.045-19.636-.704-29.415-4.372l-1.987-.731c-13.25-4.985-23.998-12.232-34.365-21.894-3.048-2.734-6.224-5.245-9.46-7.75a331 331 0 0 1-13.563-11.062c-5.869-5.033-11.986-9.669-18.2-14.266a605 605 0 0 1-9.445-7.156c-10.013-7.722-20.147-15.133-30.636-22.196-3.819-2.572-7.558-5.238-11.281-7.945-8.788-6.349-17.932-12.16-27.063-18l-2.428-1.556C8758.325 1325.658 8676.95 1286.365 8485 1223l-2.923-.804c-95.295-26.142-193.422-43.398-361.327-50.514q-4.679.008-9.356.011c-33.551.04-66.929.734-100.394 3.307l-3.488.264c-105.148 8.02-208.794 26.628-519.512 140.736l-1.805.886c-15.326 7.523-30.507 15.258-45.422 23.57-2.91 1.62-5.826 3.23-8.742 4.84-15.523 8.602-30.825 17.554-46.031 26.704l-3.189 1.912c-17.007 10.224-33.539 21.095-49.994 32.177a2352 2352 0 0 1-11.762 7.868c-6.316 4.198-12.598 8.435-18.805 12.793l-2.54 1.782c-26.034 18.342-51.246 37.85-75.906 57.996a1794 1794 0 0 1-4.769 3.874c-6.851 5.564-13.552 11.292-20.237 17.054a970 970 0 0 1-5.31 4.52c-6.658 5.645-13.165 11.411-19.52 17.397a286 286 0 0 1-8.711 7.89c-14.862 12.98-28.732 27.052-42.663 41.012q-4.058 4.065-8.125 8.122-3.183 3.179-6.362 6.362-1.497 1.499-2.997 2.995c-5.59 5.58-10.97 11.25-16.11 17.246a321 321 0 0 1-3.719 4l-1.886 2-3.79 4a421 421 0 0 0-12.605 14l-1.48 1.716a2195 2195 0 0 0-4.208 4.909l-4.718 5.515a2629 2629 0 0 1-4.719 5.489A935 935 0 0 0 7034 1676l-3.094 3.781c-6.27 7.67-12.44 15.396-18.433 23.285q-2.59 3.394-5.192 6.778c-8.076 10.53-16.025 21.135-23.714 31.952a1471 1471 0 0 1-3.067 4.299c-8.81 12.308-17.22 24.882-25.625 37.468l-1.658 2.478a1343 1343 0 0 0-32.53 51.15c-18.137 29.918-34.749 60.67-50.687 91.809l-1.82 3.538c-9.486 18.451-18.145 37.2-26.443 56.214q-2.807 6.43-5.698 12.822c-8.057 17.863-15.133 36.093-22.039 54.426l-.826 2.193c-36.077 95.984-60.656 195.786-84.174 417.807l-.128 2.993c-.856 20.424-1.075 40.82-1.06 61.257l.001 2.402c.042 98.363 9.141 196.807 37.187 326.348l.614 2.604c20.066 84.891 49.26 167.454 115.029 305.873 1.542 2.866 3.066 5.741 4.591 8.617a1019 1019 0 0 0 22.912 40.774q2.43 4.109 4.847 8.226c7.586 12.92 15.282 25.754 23.378 38.363 1.855 2.895 3.697 5.8 5.54 8.703 7.032 11.07 14.126 22.07 21.661 32.804 1.592 2.27 3.174 4.545 4.756 6.821A1430 1430 0 0 0 7008 3376l2.852 3.727c2.372 3.099 4.758 6.188 7.148 9.273l1.306 1.688a601 601 0 0 0 18.08 22.234 453 453 0 0 1 7.051 8.516c7.603 9.33 15.471 18.43 23.56 27.343a398 398 0 0 1 5.378 6.094c4.3 4.934 8.744 9.734 13.177 14.547q2.149 2.344 4.284 4.7c4.836 5.32 9.73 10.545 14.898 15.55 1.85 1.9 3.564 3.827 5.286 5.84 4.534 5.221 9.425 10.083 14.323 14.96q2.386 2.383 4.764 4.772c4.925 4.927 9.894 9.744 15.192 14.273 2.533 2.208 4.853 4.578 7.201 6.983 3.61 3.66 7.297 7.154 11.207 10.492 3.161 2.768 6.222 5.64 9.293 8.508 4.926 4.591 9.883 9.122 15 13.5l3.102 2.664q3.583 3.075 7.171 6.145 3.703 3.167 7.391 6.351c5.789 4.992 11.6 9.928 17.602 14.664 2.13 1.695 4.24 3.406 6.343 5.133a632 632 0 0 0 24.332 19.016 731 731 0 0 1 10.315 7.832c9.436 7.27 19.035 14.294 28.744 21.195l1.712 1.22c11.176 7.961 22.472 15.737 33.843 23.416 2.748 1.857 5.49 3.722 8.232 5.587 11.14 7.544 22.46 14.66 34.053 21.488 3.381 2.018 6.709 4.12 10.035 6.227 77.409 48.652 161.294 88.712 296.051 136.39q3.016.979 6.03 1.963c89.28 29.08 182.238 47.463 987.044-70.291l3.14-1.422c25.27-11.468 50.49-23.29 74.86-36.578l3.166-1.716a1286 1286 0 0 0 65.709-38.221l2.823-1.753q2.656-1.664 5.266-3.395c3.036-1.915 3.036-1.915 6.367-3.583 6.36-3.426 6.36-3.426 10.418-9.165 1.23-5.497.964-11.115.852-16.713q.016-2.858.046-5.715c.04-5.226 0-10.448-.054-15.673-.043-5.638-.012-11.276.01-16.914.028-9.765.008-19.529-.043-29.294-.075-14.118-.078-28.235-.064-42.353.022-22.906-.015-45.811-.088-68.717-.07-22.25-.114-44.5-.121-66.75v-2.078l-.006-20.67c-.01-57.764-.113-115.527-.281-173.29l-2.76.003a242624 242624 0 0 1-181.414.162l-3.912.002q-31.34.021-62.678.064-32.168.043-64.333.051-19.843.005-39.685.042-13.613.023-27.227.017c-5.233-.002-10.466 0-15.7.017q-7.197.02-14.396.005-2.593-.003-5.185.012c-23.736.122-45.371-5.686-63.042-22.516-14.234-15.254-22.772-34.188-22.802-55.214l-.007-2.152a2396 2396 0 0 1-.006-7.12l-.011-5.165q-.014-7.09-.017-14.18-.007-7.65-.022-15.3c-.02-12.314-.03-24.629-.039-36.943l-.015-17.413a114455 114455 0 0 1-.044-72.927l-.002-3.771c-.008-20.147-.033-40.294-.066-60.44q-.049-31.05-.054-62.1c-.002-11.616-.01-23.232-.036-34.848q-.034-14.842-.02-29.685c.004-5.043.002-10.086-.017-15.13q-.026-6.942-.001-13.885.003-2.494-.014-4.989c-.096-14.261 1.249-29.459 8.317-42.16l1.052-1.982c2.866-5.269 6.09-10.014 10.136-14.455l2.168-2.445c13.668-14.583 31.88-23.101 51.832-24.555 5.122-.144 10.242-.138 15.365-.131l4.703-.007q6.465-.007 12.931-.003 7.033-.001 14.066-.008 13.95-.011 27.9-.01 16.71-.004 33.42-.015c26.922-.016 53.845-.022 80.767-.027q19.104-.003 38.209-.01a597875 597875 0 0 1 165.809-.03q66.375-.006 132.75-.041a284230 284230 0 0 1 157.819-.042h3.832c20.349 0 40.698-.012 61.047-.026q30.68-.022 61.36-.01 18.225.007 36.449-.015 12.18-.014 24.36.001 6.935.01 13.87-.006 6.323-.017 12.646.004 2.26.004 4.52-.008c15.076-.078 29.516 1.594 43.177 8.384l2.383 1.152c6.144 3.18 11.39 7.345 16.617 11.848l1.871 1.578c14.187 12.975 21.53 32.7 23.129 51.422.128 3.109.135 6.212.126 9.324l.005 2.728c.004 3.014 0 6.028-.002 9.042l.005 6.58q.006 9.07 0 18.142 0 8.84.006 17.681.008 18.303.006 36.606-.002 18.55.004 37.099v2.366l.003 9.543a345650 345650 0 0 1 .014 110.284v2.686q.001 29.469.005 58.936l.003 24.267v2.708a1160482 1160482 0 0 1 .01 202.753 767339 767339 0 0 0 .031 229.396v2.87a516574 516574 0 0 1 .013 150.783v26.985q0 42.82.014 85.64a162640 162640 0 0 1 .002 98.197l-.001 2.361q-.003 18.492.01 36.983.01 18.195-.002 36.39-.007 9.727.003 19.455.011 8.858-.003 17.717-.003 3.176.005 6.353c.037 15.51-.134 31.38-4.32 46.438-.21.77-.42 1.541-.638 2.335-6.092 21.131-16.558 41.96-31.299 58.352l-2.102 2.531c-9.79 11.535-22.747 19.563-35.335 27.719l-4.267 2.78A4299 4299 0 0 1 9311 4151l-3.167 2.05c-24.453 15.81-49.437 30.712-74.833 44.95l-1.816 1.018a1587 1587 0 0 1-49.412 26.547c-3.325 1.721-6.633 3.473-9.94 5.23-19.728 10.474-39.775 20.257-60.08 29.56q-5.983 2.746-11.946 5.535c-93.356 43.621-190.555 79.25-912.65 231.021q-3.04.128-6.08.264c-74.601 3.279-149.745.453-706.076-100.175l-2.662-.88c-68.614-22.705-135.814-49.634-201.338-80.12l-2.205-1.025c-31.173-14.503-62.359-29.259-92.404-45.998a643 643 0 0 0-12.532-6.766c-13.896-7.338-27.62-14.858-41.152-22.86-5.604-3.31-11.275-6.49-16.957-9.663-21.674-12.164-42.735-25.429-63.75-38.688l-2.931-1.849c-11.459-7.236-22.828-14.581-34.069-22.151l-5.562-3.687c-22.46-14.984-44.627-30.4-66.438-46.313l-2.291-1.67c-18.15-13.253-35.99-26.911-53.692-40.754a2727 2727 0 0 0-5.65-4.4c-8.616-6.712-17.048-13.636-25.46-20.601-2.543-2.1-5.1-4.181-7.657-6.262-9.702-7.932-19.202-16.108-28.707-24.274q-3.551-3.049-7.117-6.078a635 635 0 0 1-19.766-17.516 289 289 0 0 0-6.597-5.882c-4.67-4.051-9.186-8.268-13.72-12.47a1569 1569 0 0 0-9.093-8.343 6788 6788 0 0 1-6.25-5.75l-1.605-1.473c-14.377-13.232-28.126-27.104-41.928-40.93q-5.147-5.154-10.304-10.3a9786 9786 0 0 1-8.03-8.03l-3.8-3.798c-11.866-11.848-11.866-11.848-17.053-17.968-1.658-1.944-3.443-3.728-5.28-5.501-3.102-3.061-5.981-6.231-8.82-9.535-2.993-3.385-6.088-6.67-9.18-9.965-4.765-5.087-9.477-10.195-14-15.5q-2.936-3.439-5.875-6.875l-1.576-1.845a457 457 0 0 0-9.236-10.467c-3.758-4.14-7.29-8.427-10.805-12.774-2.896-3.51-5.885-6.93-8.883-10.351a357 357 0 0 1-13.599-16.556c-3.096-3.99-6.301-7.862-9.588-11.694-4.89-5.715-9.492-11.624-14.041-17.611-2.072-2.71-4.172-5.396-6.271-8.084-12.475-15.98-24.772-32.07-36.563-48.563a1160 1160 0 0 0-4.696-6.492c-13.326-18.318-26.118-36.99-38.802-55.756l-3.83-5.66c-7.642-11.29-15.081-22.667-22.235-34.272q-1.514-2.406-3.04-4.805c-18.8-29.586-36.75-59.656-53.96-90.195l-1.692-3.001c-13.674-24.315-26.971-48.86-39.274-73.9-1.305-2.65-2.626-5.293-3.95-7.935q-.963-1.921-1.922-3.846a1335 1335 0 0 0-5.799-11.486c-7.989-15.713-15.321-31.685-22.534-47.765a2239 2239 0 0 0-5.145-11.356c-41.136-90.541-74.15-185.369-126.684-399.711l-.585-2.96c-19.926-100.93-31.287-203.258-37.415-378.04l-.026-2.367c-.112-10.212-.086-20.421.026-30.633l.026-2.62c.878-86.932 6.827-173.59 55.974-458.38l.7-2.86c11.818-48.282 25.716-95.941 41.3-143.14l.893-2.706c26.908-81.343 60.201-160.486 98.107-237.294l1.146-2.325c8.338-16.915 16.709-33.79 25.874-50.277 2.553-4.596 5.028-9.231 7.491-13.876a1005 1005 0 0 1 22.717-40.5c2.458-4.191 4.866-8.41 7.277-12.629 11.448-20.005 23.612-39.565 35.982-59.01 1.606-2.53 3.204-5.064 4.802-7.598 21.71-34.37 44.75-67.946 68.711-100.785l1.67-2.291c8.703-11.918 17.588-23.691 26.564-35.404q2.294-2.994 4.578-5.992c5.836-7.641 11.824-15.155 17.85-22.647 1.764-2.196 3.52-4.4 5.275-6.603 7.944-9.921 15.931-19.8 24.175-29.474a538 538 0 0 0 8.513-10.276c3.578-4.4 7.32-8.609 11.14-12.797 2.247-2.53 4.37-5.126 6.485-7.766 4.66-5.764 9.686-11.138 14.754-16.54a238 238 0 0 0 6.559-7.272c4.493-5.202 9.2-10.21 13.874-15.25a2307 2307 0 0 0 5.785-6.279c2.025-2.2 4.057-4.392 6.09-6.585q1.61-1.74 3.217-3.485c12.952-14.052 26.496-27.518 40.019-41.017q4.973-4.966 9.937-9.941 3.874-3.879 7.752-7.752l3.665-3.667c11.421-11.439 11.421-11.439 17.582-16.666 1.947-1.665 3.737-3.454 5.516-5.296 3.061-3.102 6.231-5.981 9.535-8.82 3.385-2.993 6.67-6.088 9.965-9.18 4.48-4.2 8.969-8.367 13.625-12.371 2.263-1.966 4.472-3.986 6.688-6.004 3.462-3.13 6.994-6.13 10.624-9.062A228 228 0 0 0 6812.5 1063c4.416-4.06 8.962-7.893 13.629-11.66 3.1-2.527 6.143-5.116 9.184-7.715 4.96-4.226 10.028-8.287 15.172-12.286 4.764-3.716 9.427-7.545 14.078-11.401 7.024-5.819 14.171-11.424 21.437-16.938q3-2.31 6-4.625 3.498-2.689 7-5.375l2.394-1.839c10.156-7.794 20.34-15.51 30.806-22.883 2.733-1.94 5.443-3.912 8.155-5.882 3.874-2.81 7.758-5.605 11.645-8.396l2.125-1.527c16.282-11.649 33.02-22.634 49.697-33.704q6.02-3.994 12.027-8.007c7.84-5.24 15.683-10.467 23.651-15.512l2.73-1.732c17.818-11.269 35.806-22.253 54.003-32.898q4.298-2.519 8.591-5.046c28.331-16.635 57.112-32.431 86.293-47.523a1366 1366 0 0 0 13.061-6.852c20.353-10.799 41.043-20.849 61.989-30.44q5.014-2.301 10.02-4.62c81.964-37.914 166.783-69.88 691.067-174.041l2.552-.185c45.039-3.143 90.08-4.272 135.221-4.229M11391 601l2.89.026c89.695.85 179.35 6.631 689.559 110.142q3.938 1.283 7.878 2.56c56.52 18.348 112.326 39.203 166.673 63.272 1.155.51 2.311 1.02 3.501 1.547 36.09 15.977 72.286 32.306 107.01 51.113 2.99 1.61 5.993 3.195 8.997 4.781 13.407 7.095 26.623 14.443 39.687 22.157 5.783 3.408 11.633 6.69 17.493 9.965 9.91 5.562 19.61 11.423 29.222 17.488q3.634 2.291 7.276 4.57c11.54 7.238 22.929 14.681 34.252 22.254l2.574 1.72c12.443 8.31 24.823 16.69 36.988 25.405l4.445 3.16c32.69 23.332 32.69 23.332 46.555 36.84l2.11 1.922c16.885 15.804 29.315 39.003 30.128 62.316.23 12.515-.377 23.827-4.238 35.762l-.617 1.964c-6.345 19.709-17.39 36.523-29.372 53.225-3.082 4.308-6.107 8.654-9.136 12.998q-1.722 2.46-3.445 4.918a31252 31252 0 0 0-13.93 19.895l-1.75 2.5-145.25 207.5-1.75 2.5q-1.747 2.498-3.496 4.993-5.305 7.58-10.606 15.161-1.765 2.52-3.532 5.04c-2.78 3.959-5.546 7.926-8.276 11.92-6.05 8.8-12.374 16.739-19.84 24.386l-2.23 2.418c-15.148 16.03-36.923 26.869-59.098 27.82-36.247.824-68.018-16.852-98.187-35.133-5.7-3.45-11.438-6.837-17.173-10.23l-3.394-2.012A4470 4470 0 0 0 12159 1408l-3.135-1.823c-23.732-13.797-47.733-27.094-71.865-40.177l-3.008-1.635c-42.249-22.95-85.085-45.173-129.111-64.535q-2.822-1.246-5.638-2.506c-74.646-33.33-153.628-56.978-488.243-102.324l-3.519-.147c-23.446-.948-46.885-1.04-70.348-1.038q-6.351 0-12.701-.02c-37.252-.12-74.426.769-111.557 3.955l-2.988.25c-98.765 8.345-196.27 27.964-552.512 228l-1.54 1.828a248 248 0 0 1-4.608 5.281c-16.931 19.029-31.496 39.857-44.227 61.891l-1.285 2.205c-45.584 78.694-55.974 176.455-33.712 264.127 13.71 50.437 38.336 96.445 73.661 135.086a361 361 0 0 1 5.613 6.379c3.721 4.26 7.65 8.278 11.66 12.265l2.014 2.026c4.518 4.509 9.202 8.76 14.049 12.912l3.246 2.816c15.476 13.345 31.291 26.074 47.754 38.184l2.252 1.667c35.402 26.168 73.184 48.769 112.428 68.647 2.957 1.502 5.904 3.02 8.847 4.545 76.02 39.112 159.906 63.762 468.563 151.512l2.083.53 4.145 1.054c34.422 8.755 68.576 18.25 102.65 28.272q6.975 2.05 13.952 4.09c57.887 16.933 115.567 34.523 173.08 52.683l3.53 1.114c59.18 18.7 118.262 38 176.645 59.072 6.14 2.215 12.294 4.393 18.454 6.552 85.453 29.998 170.059 63.031 270.371 107.262l2.305 1.03a1831 1831 0 0 1 53.195 24.845l2.404 1.167c11.827 5.749 23.49 11.775 35.096 17.958l3.359 1.783c14.017 7.462 27.809 15.266 41.477 23.347q4.128 2.439 8.264 4.866 3.508 2.06 7.012 4.127 2.418 1.425 4.838 2.845c15.72 9.298 31.03 19.239 46.212 29.386q3.702 2.472 7.408 4.935c13.864 9.238 27.541 18.733 40.93 28.648l2.37 1.752c8.113 6.012 16.144 12.13 24.13 18.311l1.822 1.408c13.057 10.114 25.804 20.612 38.298 31.413a330 330 0 0 0 10.192 8.429c5.773 4.676 11.129 9.775 16.5 14.903a352 352 0 0 0 12.449 11.315c2.634 2.32 5.053 4.822 7.489 7.345 1.819 1.768 3.66 3.395 5.59 5.035 6.038 5.247 11.625 10.968 17.27 16.63a2754 2754 0 0 0 5.857 5.852c5.58 5.578 11.12 11.134 16.232 17.15 1.667 1.948 3.458 3.74 5.301 5.52 3.193 3.15 6.172 6.412 9.094 9.813 2.215 2.542 4.497 5.018 6.781 7.5 4.147 4.542 8.057 9.228 11.918 14.015 2.123 2.57 4.325 5.031 6.582 7.485 3.981 4.373 7.642 8.93 11.262 13.601a473 473 0 0 0 9.103 11.352c20.85 25.307 39.633 53.366 55.89 81.834q1.44 2.521 2.9 5.03c22.128 38.038 40.563 77.98 55.47 119.37l.732 2.032c26.705 74.286 41.84 151.569 49.004 230.085.25 2.727.509 5.453.769 8.18 5.748 61.773 5.347 126.404-.277 188.18-.231 2.56-.45 5.12-.666 7.682-7.312 85.91-24.908 170.518-72.562 302.841l-1.522 3.665c-15.735 37.621-33.91 74.468-54.793 109.491a725 725 0 0 0-4.822 8.282c-8.01 13.872-16.767 27.162-25.743 40.42-2.139 3.17-4.258 6.352-6.374 9.537-4.428 6.65-9.05 13.142-13.746 19.605l-1.587 2.185c-12.187 16.742-24.862 33.06-37.99 49.075q-1.912 2.34-3.814 4.69a712 712 0 0 1-25.609 29.835c-1.796 1.99-3.56 4-5.312 6.028-3.995 4.58-8.122 9.037-12.257 13.489q-3.271 3.523-6.529 7.06c-8.343 9.027-16.913 17.805-25.618 26.484a3428 3428 0 0 0-6.534 6.54l-4.242 4.239-1.93 1.935c-3.788 3.77-7.689 7.351-11.75 10.826-1.855 1.637-3.597 3.348-5.328 5.114-2.967 3.014-6.073 5.8-9.277 8.559-2.553 2.229-5.042 4.521-7.535 6.816-4.44 4.05-9.007 7.88-13.684 11.652-3.5 2.882-6.907 5.86-10.317 8.848a358 358 0 0 1-16.357 13.467c-3.73 2.89-7.398 5.84-11.038 8.841-8.724 7.182-17.736 13.906-26.873 20.55-2.39 1.746-4.77 3.506-7.146 5.27-21.547 16.008-43.754 30.903-66.273 45.497l-2.857 1.853c-14.13 9.128-28.616 17.67-43.143 26.147l-3.428 2.001c-42.582 24.783-86.602 47.324-131.697 67.172q-2.774 1.224-5.544 2.459c-85.32 37.917-174.518 67.984-353.331 111.368l-3.018.613c-88.939 18.008-178.894 29.846-352.982 40.387l-2.942.114c-87.465 3.384-175.695 1.062-1011.058-194.114l-1.876-.86c-44.508-20.426-88.71-41.925-131.527-65.71-4.042-2.225-8.113-4.396-12.18-6.572A1560 1560 0 0 1 10177 4208l-3.06-1.752c-32.33-18.542-64.335-37.538-95.906-57.348q-4.585-2.87-9.179-5.724l-3.1-1.93a4172 4172 0 0 0-5.684-3.533c-16.278-10.145-32.26-20.771-48.28-31.315q-2.79-1.834-5.582-3.666c-11.686-7.664-23.247-15.47-34.661-23.534-4.71-3.326-9.469-6.579-14.236-9.823-8.127-5.544-16.179-11.188-24.202-16.882-2.159-1.528-4.325-3.045-6.493-4.56-12.425-8.69-24.561-17.508-35.617-27.933l-2.266-2.07c-16.436-15.575-28.805-37.986-29.734-60.93l-.121-2.719c-.682-30.475 13.926-55.33 30.871-79.468l4.246-6.079 2.074-2.966c2.597-3.724 5.174-7.462 7.743-11.206l1.326-1.932q1.931-2.814 3.861-5.63c6.99-10.2 14.03-20.364 21.096-30.51q6.376-9.157 12.686-18.36a2974 2974 0 0 1 12.093-17.443c4.906-7.041 9.79-14.097 14.625-21.187 5.517-8.09 11.101-16.13 16.7-24.164a2624 2624 0 0 0 11.3-16.336c4.427-6.46 8.898-12.888 13.375-19.312 4.906-7.042 9.79-14.098 14.625-21.188 5.517-8.09 11.101-16.13 16.7-24.164a2624 2624 0 0 0 11.3-16.336c5.11-7.456 10.28-14.871 15.448-22.288a2332 2332 0 0 0 12.802-18.587q2.356-3.443 4.716-6.883 1.537-2.247 3.064-4.5c6.804-10.03 14-19.072 22.47-27.742l1.816-2.004c14.188-15.325 35.249-25.092 55.989-26.2 23.168-.451 45.105 6.12 65.37 17.21 1.773.966 3.567 1.895 5.36 2.822 8.275 4.44 15.216 9.805 22.395 15.809 3.927 3.276 7.966 6.375 12.07 9.425l2.004 1.49 4.005 2.969a956 956 0 0 1 5.92 4.44A1133 1133 0 0 0 10336 3619l2.479 1.675c46.61 31.436 94.971 60.21 144.94 85.986a953 953 0 0 1 9.307 4.913c23.06 12.262 46.532 23.747 70.315 34.537q3.091 1.403 6.181 2.813c53.61 24.404 108.266 46.382 163.778 66.076l2.51.89c96.203 34.053 195.9 58.19 468.74 90.298l2.221.112c5.508.271 11.018.492 16.529.7l3.305.128c22.608.86 45.197 1.075 67.82 1.06l2.665-.001c101.437-.039 202.43-8.415 542.21-102.187l3.274-1.478c41.831-18.884 82.286-40.877 119.726-67.522l2.193-1.554c10.158-7.21 20.107-14.63 29.807-22.446l2.816-2.262a643 643 0 0 0 32.66-28.327 960 960 0 0 1 4.81-4.415c8.628-7.892 17.15-15.852 24.753-24.758 2.005-2.288 4.078-4.503 6.164-6.716 6.19-6.59 11.867-13.446 17.348-20.631a674 674 0 0 1 4.605-5.922c46.97-60.177 74.442-131.691 84.844-206.969l.505-3.544c5.475-40.207 5.323-83.421-1.505-123.456l-.367-2.159c-3.405-19.735-8.18-38.866-14.633-57.841l-.924-2.79c-12.944-38.904-33.659-74.206-59.076-106.21l-2.426-3.074c-4.732-5.892-9.743-11.482-14.883-17.016a525 525 0 0 1-7.254-8.035c-6.378-7.096-13.067-13.835-20.32-20.04-2.523-2.187-4.973-4.448-7.43-6.71-4.88-4.447-9.91-8.65-15.05-12.792a594 594 0 0 1-5.547-4.587c-8.831-7.357-17.805-14.436-27.065-21.245a463 463 0 0 1-5.88-4.446c-37.02-28.123-77.228-52.119-118.145-74.055l-2.675-1.436c-56.617-30.253-115.89-53.846-176.546-74.61q-4.155-1.427-8.306-2.863c-77.387-26.749-155.753-50.595-416.473-122.716a5682 5682 0 0 1-218-61.375l-3.376-1.024c-96.677-29.342-192.485-61.544-440.79-163.13-2.95-1.36-5.904-2.712-8.857-4.065-34.454-15.838-68.455-32.473-101.38-51.307a681 681 0 0 0-9.327-5.173c-48.045-26.328-94.086-57.623-137.27-91.301l-3.45-2.672a574 574 0 0 1-20.472-16.715 453 453 0 0 0-8.515-7.05c-10.051-8.204-19.815-16.66-29.238-25.58-3.022-2.857-6.077-5.65-9.231-8.362-4.457-3.872-8.584-8.036-12.719-12.246-5.534-5.66-5.534-5.66-11.46-10.898-3.04-2.583-5.486-5.347-8.067-8.372-3.108-3.541-6.486-6.807-9.848-10.105-4.655-4.566-9.132-9.196-13.388-14.138-2.267-2.618-4.626-5.14-6.987-7.675-4.27-4.621-8.307-9.381-12.254-14.285-2.69-3.292-5.463-6.502-8.246-9.715-5.48-6.348-10.702-12.87-15.827-19.506q-1.853-2.395-3.716-4.783A1099 1099 0 0 1 10168 2184l-1.51-1.984c-50.539-66.68-87.688-142.281-150.49-433.016l-.184-2.421c-3.904-51.709-3.597-104.875.184-156.579l.199-2.738c6.497-88.599 22.345-175.987 126.141-424.482 1.593-2.668 3.173-5.342 4.75-8.018 17.197-29.07 36.467-56.887 56.91-83.762l2.316-3.059c6.227-8.183 12.686-16.17 19.2-24.125q1.934-2.37 3.855-4.75c9.02-11.138 18.468-21.897 28.2-32.418 2.1-2.289 4.15-4.608 6.179-6.96 2.68-3.094 5.511-5.973 8.432-8.838 1.646-1.675 3.155-3.393 4.666-5.19 5.119-5.885 10.682-11.339 16.204-16.842q2.82-2.816 5.634-5.64c10.898-10.904 10.898-10.904 16.717-15.795 1.788-1.548 3.441-3.194 5.097-4.883 2.989-3.036 6.117-5.845 9.344-8.625 2.356-2.049 4.661-4.147 6.969-6.25 4.27-3.855 8.675-7.5 13.148-11.117 3.51-2.896 6.929-5.885 10.352-8.883 6.428-5.61 13.026-10.94 19.781-16.149a947 947 0 0 0 6.152-4.816 767 767 0 0 1 29.604-22.13q3.01-2.144 6.005-4.307c32.166-23.074 65.777-44.18 100.261-63.595q2.905-1.64 5.799-3.295c36.113-20.634 73.634-39.103 111.895-55.398q3.404-1.455 6.8-2.923c34.262-14.787 69.103-27.889 104.39-40.012l2.16-.744c39.14-13.451 78.762-24.953 118.84-35.256l2.736-.706c110.222-28.4 223.396-44.31 516.264-57.294M13327.878 609.624q2.603-.004 5.204-.013c4.74-.011 9.48-.004 14.22.007 5.186.008 10.372-.002 15.558-.009q13.672-.014 27.346 0c13.646.012 27.292.007 40.937-.002 23.259-.014 46.517-.013 69.775-.005a114846 114846 0 0 0 93.41-.002q25.635-.008 51.271-.012h2.373a355409 355409 0 0 1 120.855.004h2.54l33.145.005h2.56q58.708.007 117.418.002l12.81-.001 38.61-.003q58.87-.004 117.74-.005h2.649q84.888-.002 169.778.008h2.738l90.782.012c91.508.011 183.016.017 346.436 0l90.756-.012h2.737q84.843-.01 169.687-.008h2.647a2410667 2410667 0 0 1 169.074.009q58.71.005 117.42-.002h2.557l33.125-.005h2.537l5.067-.001c38.541-.006 77.082-.01 115.624-.003h2.37a507389 507389 0 0 1 73.857.018q35.308.01 70.616-.005 35.733-.013 71.466.009 20.328.013 40.655-.005 13.497-.01 26.994.009c5.102.006 10.204.009 15.306-.003q6.957-.014 13.914.009 2.483.004 4.964-.008c26.782-.118 54.87 5.302 75.594 23.388l1.965 1.5c17.314 13.715 25.267 36.676 27.829 57.916.476 5.97.35 11.973.346 17.958l.01 4.72q.01 6.468.01 12.936c.002 4.655.01 9.31.016 13.966q.02 15.264.024 30.528l.012 19.08q.019 26.44.026 52.88v6.840999999999999l.003 10.312q.008 27.58.045 55.162.035 28.35.037 56.7-.001 15.903.025 31.807.023 13.548.012 27.097c-.004 4.601-.003 9.203.011 13.805.102 35.19-1.893 66.293-27.434 93.292-20.172 19.704-48.336 26.86-75.895 26.748l-4.1.008c-3.742.007-7.484.001-11.225-.006-4.092-.006-8.183 0-12.274.003q-10.79.008-21.58-.003c-10.768-.01-21.536-.009-32.304-.005q-27.528.008-55.056-.007-27.899-.013-55.796-.012h-3.56l-17.966.001a380914 380914 0 0 1-162.213-.024h-2.019a443385 443385 0 0 0-98.673-.013l-36.53-.002-92.9-.006a1231541 1231541 0 0 1-201.099-.03l-71.997-.015h-2.186a2066018 2066018 0 0 0-216.618-.028l-148.32-.013c-221.541-.019-443.084-.059-664.626-.096v1286c404.926-.08 404.926-.08 809.853-.18 78.18-.01 78.18-.01 114.74-.01q39.702-.004 79.404-.022a157106 157106 0 0 1 95.39-.014h2.312q17.94 0 35.879-.014 17.48-.013 34.96-.004 9.343.006 18.684-.006 8.526-.012 17.052.002 3.055.002 6.11-.006c16.2-.043 32.509.494 48.303 4.441l2.631.648c24.762 6.415 45.612 21.481 58.76 43.548 10.175 18.49 12.08 39.101 12.056 59.847l.007 4.237q.008 5.78.004 11.559c0 4.166.006 8.333.01 12.5q.012 12.228.012 24.458 0 9.948.006 19.896.014 28.245.012 56.49v6.147q.002 24.663.023 49.326.023 25.364.02 50.727-.001 14.223.014 28.447.015 12.113.005 24.224-.007 6.17.005 12.34c.069 34.605-1.752 66.915-26.877 93.161-14.627 13.99-33.586 22.62-53.375 26.258l-2.74.51c-10.81 1.774-21.452 1.766-32.38 1.736l-6.403.007c-5.861.006-11.722 0-17.583-.008-6.378-.007-12.756-.003-19.134 0q-16.764.007-33.53-.007-17.981-.013-35.964-.012h-2.297l-11.595.001q-41.934.003-83.868-.016-41.522-.018-83.044-.021h-2.606l-23.565-.002-58.575-.006h-2.694c-43.24-.005-86.479-.018-129.718-.031l-47.83-.015a852016 852016 0 0 0-138.22-.027l-166.973-.024h-5.292a2137767 2137767 0 0 1-240.452-.054L13829 2982l.001 3.745.048 129.515a1884376 1884376 0 0 1 .104 407.903l.013 73.875c.01 49.695.02 99.39.04 149.086l.001 3.237.02 51.672c.02 49.617.039 99.234.046 148.851v3.093a951612 951612 0 0 1 .012 94.262v2.99q.006 47.669.034 95.337a137746 137746 0 0 1 .02 109.337v2.63q0 20.591.021 41.182.02 20.261.005 40.522-.009 11.87.014 23.739.013 8.827-.007 17.656-.003 3.538.01 7.075c.106 31.139-4.063 61.028-26.394 84.398-16.73 15.988-41.045 23.005-63.747 23.026l-2.247.007q-3.713.006-7.425.002l-5.39.01q-7.395.01-14.789.01-7.98.005-15.96.016-17.445.02-34.891.024-10.9.004-21.8.012-30.2.019-60.397.026h-7.8149999999999995l-7.848.002h-3.933q-31.52.009-63.04.046-32.385.035-64.77.037-18.173-.001-36.347.025-15.48.023-30.958.012-7.89-.008-15.78.011-7.24.019-14.48 0-2.602-.004-5.204.01c-27.687.13-53.91-5.888-74.503-25.62-18.01-18.778-23.85-45.312-23.79-70.647l-.005-3.243q-.003-5.394.003-10.788-.001-3.922-.005-7.845-.005-8.574-.001-17.147.003-12.872-.003-25.745a88540 88540 0 0 1-.005-44.074q.003-22.463-.002-44.924v-2.875l-.004-14.53q-.011-53.104-.012-106.21a809275 809275 0 0 0-.013-142.21q-.021-152.204-.027-304.406v-23.368000000000002a5622074 5622074 0 0 0-.016-241.28v-3.925a13337611 13337611 0 0 1-.021-445.26v-20.845l-.002-33.421v-12.552999999999999l-.001-79.725c-.003-132.276-.008-264.551-.024-396.827v-4.22l-.034-264.471v-4.166a2968532 2968532 0 0 1-.021-262.264 6016690 6016690 0 0 1-.005-257.269q.001-89.362-.013-178.726v-3.895l-.011-62.021c-.01-58.68-.02-117.36-.018-176.04v-3.606a1222530 1222530 0 0 1 .008-108.97v-3.422q.004-53.769-.014-107.538a167137 167137 0 0 1 .002-120.366v-2.867q.005-22.382-.012-44.764-.016-21.894.003-43.788.01-12.773-.009-25.544-.011-8.47.006-16.94.011-4.786-.004-9.573c-.092-31.021 3.752-60.461 25.741-83.983 19.84-19.539 47.778-23.983 74.523-23.856"/></svg>